<?xml version="1.0" encoding="utf-8"?>
<!-- Generator: Adobe Illustrator 21.1.0, SVG Export Plug-In . SVG Version: 6.00 Build 0)  -->
<svg version="1.1" id="Layer_1" xmlns="http://www.w3.org/2000/svg" xmlns:xlink="http://www.w3.org/1999/xlink" x="0px" y="0px"
	 viewBox="0 0 1126 530" style="enable-background:new 0 0 1126 530;" xml:space="preserve">
<style type="text/css">
	.st0{fill:#22262B;}
	.st1{fill:#F2A35A;}
	.st2{fill:#282C35;}
	.st3{fill:#E866E8;}
	.st4{fill:#F7C46A;}
	.st5{fill:#44B9C7;}
	.st6{fill:#CDE1E8;}
	.st7{fill:#FC6D78;}
</style>
<path class="st0" d="M1095.5,530H30.5C13.7,530,0,516.3,0,499.5v-469C0,13.7,13.7,0,30.5,0h1065c16.8,0,30.5,13.7,30.5,30.5v469
	C1126,516.3,1112.3,530,1095.5,530z"/>
<g>
	<path class="st1" d="M662,433.5v-5c42.6,0,72.2-13.5,93.3-42.4c19-26,28.9-61.4,39.4-98.9c25.8-92.2,55-196.7,233.3-196.7v5
		c-78,0-133.6,20.3-170.1,62c-32.1,36.8-45.5,84.7-58.4,131.1C778.7,363.1,759,433.5,662,433.5z"/>
</g>
<g>
	<path class="st2" d="M559,490.5c-1.4,0-2.5-1.1-2.5-2.5V24c0-1.4,1.1-2.5,2.5-2.5s2.5,1.1,2.5,2.5v464
		C561.5,489.4,560.4,490.5,559,490.5z"/>
</g>
<g>
	<path class="st3" d="M86.8,101.8c0.5,0,0.9-0.1,1.3-0.2c0.4-0.1,0.8-0.3,1.2-0.6c0.3-0.3,0.6-0.6,0.8-0.9c0.2-0.4,0.3-0.7,0.3-1.1
		h2.4c0,0.7-0.2,1.3-0.5,1.9c-0.3,0.6-0.8,1.1-1.3,1.6c-0.6,0.5-1.2,0.8-1.9,1.1c-0.7,0.3-1.5,0.4-2.3,0.4c-1.1,0-2.1-0.2-2.9-0.6
		c-0.8-0.4-1.5-0.9-2.1-1.6c-0.6-0.7-1-1.5-1.3-2.4c-0.3-0.9-0.4-1.8-0.4-2.8v-0.6c0-1,0.1-1.9,0.4-2.8c0.3-0.9,0.7-1.7,1.3-2.4
		c0.6-0.7,1.3-1.2,2.1-1.6c0.8-0.4,1.8-0.6,2.9-0.6c0.9,0,1.7,0.1,2.4,0.4c0.7,0.3,1.4,0.7,1.9,1.1s1,1,1.3,1.7s0.5,1.4,0.5,2.1
		h-2.4c0-0.4-0.1-0.9-0.3-1.3c-0.2-0.4-0.4-0.7-0.8-1c-0.3-0.3-0.7-0.5-1.1-0.7c-0.4-0.2-0.9-0.3-1.4-0.3c-0.8,0-1.4,0.2-2,0.5
		s-1,0.7-1.3,1.2S83,93.4,82.8,94c-0.1,0.6-0.2,1.3-0.2,1.9v0.6c0,0.6,0.1,1.3,0.2,1.9c0.1,0.6,0.4,1.2,0.7,1.7
		c0.3,0.5,0.8,0.9,1.3,1.2S86,101.8,86.8,101.8z"/>
	<path class="st3" d="M96.6,96.1c0-1.1,0.2-2.1,0.5-3c0.3-0.9,0.8-1.7,1.3-2.4c0.6-0.7,1.3-1.2,2.1-1.6c0.8-0.4,1.8-0.6,2.8-0.6
		c1,0,2,0.2,2.8,0.6c0.8,0.4,1.5,0.9,2.1,1.6c0.6,0.7,1,1.5,1.3,2.4c0.3,0.9,0.5,1.9,0.5,3v0.3c0,1.1-0.2,2.1-0.5,3
		c-0.3,0.9-0.8,1.7-1.3,2.4c-0.6,0.7-1.3,1.2-2.1,1.6c-0.8,0.4-1.8,0.6-2.8,0.6c-1,0-2-0.2-2.8-0.6s-1.5-0.9-2.1-1.6
		c-0.6-0.7-1-1.5-1.3-2.4c-0.3-0.9-0.5-1.9-0.5-3V96.1z M99.1,96.4c0,0.7,0.1,1.4,0.3,2.1c0.2,0.7,0.4,1.2,0.8,1.7
		c0.4,0.5,0.8,0.9,1.3,1.2c0.5,0.3,1.1,0.4,1.8,0.4c0.7,0,1.3-0.1,1.8-0.4c0.5-0.3,1-0.7,1.3-1.2c0.4-0.5,0.6-1.1,0.8-1.7
		c0.2-0.7,0.3-1.4,0.3-2.1v-0.3c0-0.7-0.1-1.4-0.3-2.1c-0.2-0.7-0.4-1.2-0.8-1.7c-0.4-0.5-0.8-0.9-1.3-1.2c-0.5-0.3-1.1-0.4-1.8-0.4
		c-0.7,0-1.3,0.1-1.8,0.4c-0.5,0.3-1,0.7-1.3,1.2c-0.4,0.5-0.6,1.1-0.8,1.7c-0.2,0.7-0.3,1.4-0.3,2.1V96.4z"/>
	<path class="st3" d="M116.4,88.8l0.2,2.2c0.5-0.8,1.2-1.4,2-1.8c0.8-0.4,1.7-0.7,2.6-0.7c0.8,0,1.5,0.1,2.1,0.3
		c0.6,0.2,1.2,0.6,1.6,1c0.4,0.5,0.8,1.1,1,1.8c0.2,0.7,0.4,1.6,0.4,2.5v9.4h-2.5v-9.3c0-0.7-0.1-1.2-0.2-1.7
		c-0.1-0.5-0.4-0.8-0.6-1.1c-0.3-0.3-0.6-0.5-1.1-0.6c-0.4-0.1-0.9-0.2-1.4-0.2c-0.8,0-1.6,0.2-2.2,0.6s-1.2,1-1.5,1.7v10.6h-2.5
		V88.8H116.4z"/>
	<path class="st3" d="M140.7,99.7c0-0.3-0.1-0.6-0.2-0.8c-0.1-0.2-0.3-0.5-0.6-0.7c-0.3-0.2-0.7-0.4-1.1-0.6c-0.5-0.2-1-0.3-1.7-0.5
		c-0.8-0.2-1.6-0.4-2.3-0.6s-1.3-0.5-1.8-0.9c-0.5-0.3-0.9-0.7-1.2-1.2c-0.3-0.5-0.4-1-0.4-1.6c0-0.6,0.1-1.2,0.4-1.7
		c0.3-0.5,0.7-1,1.2-1.4c0.5-0.4,1.1-0.7,1.8-0.9c0.7-0.2,1.5-0.3,2.3-0.3c0.9,0,1.7,0.1,2.5,0.4c0.7,0.2,1.3,0.6,1.9,1
		c0.5,0.4,0.9,0.9,1.2,1.5c0.3,0.6,0.4,1.2,0.4,1.8h-2.5c0-0.3-0.1-0.6-0.2-0.9c-0.2-0.3-0.4-0.6-0.7-0.8c-0.3-0.2-0.6-0.4-1.1-0.6
		c-0.4-0.1-0.9-0.2-1.4-0.2c-0.5,0-1,0.1-1.4,0.2c-0.4,0.1-0.7,0.3-1,0.5c-0.3,0.2-0.5,0.4-0.6,0.7c-0.1,0.3-0.2,0.5-0.2,0.8
		c0,0.3,0.1,0.6,0.2,0.8c0.1,0.2,0.3,0.4,0.6,0.6c0.3,0.2,0.6,0.3,1.1,0.5c0.5,0.1,1,0.3,1.7,0.4c0.9,0.2,1.7,0.4,2.4,0.7
		c0.7,0.3,1.3,0.6,1.8,0.9c0.5,0.4,0.9,0.8,1.1,1.2s0.4,1,0.4,1.6c0,0.7-0.1,1.3-0.4,1.8c-0.3,0.5-0.7,1-1.2,1.4
		c-0.5,0.4-1.2,0.7-1.9,0.9s-1.5,0.3-2.4,0.3c-1,0-1.9-0.1-2.7-0.4c-0.8-0.3-1.4-0.6-2-1.1c-0.5-0.4-1-1-1.2-1.5
		c-0.3-0.6-0.4-1.2-0.4-1.8h2.5c0,0.5,0.2,1,0.4,1.3c0.2,0.4,0.5,0.6,0.9,0.9c0.4,0.2,0.8,0.4,1.2,0.5c0.4,0.1,0.9,0.1,1.3,0.1
		c1.1,0,1.9-0.2,2.5-0.6C140.4,100.8,140.7,100.3,140.7,99.7z"/>
	<path class="st3" d="M153.7,85.2v3.6h5.6v2h-5.6v8c0,0.6,0.1,1,0.2,1.4c0.1,0.4,0.3,0.7,0.6,0.9c0.3,0.2,0.5,0.4,0.9,0.5
		c0.3,0.1,0.7,0.1,1.1,0.1c0.3,0,0.6,0,0.8,0c0.3,0,0.6-0.1,0.9-0.1c0.3,0,0.5-0.1,0.8-0.1c0.2,0,0.4-0.1,0.6-0.1l0.4,1.8
		c-0.2,0.1-0.5,0.2-0.8,0.3s-0.6,0.2-1,0.2s-0.7,0.1-1.1,0.2c-0.4,0-0.8,0.1-1.2,0.1c-0.7,0-1.3-0.1-1.8-0.3
		c-0.6-0.2-1.1-0.5-1.5-0.9c-0.4-0.4-0.8-0.9-1-1.6c-0.2-0.6-0.4-1.4-0.4-2.3v-8h-3.9v-2h3.9v-3.6H153.7z"/>
	<path class="st4" d="M185.7,96.7l-1.9,1.8v5.1h-2.5v-21h2.5v12.9l1.7-1.8l4.9-4.9h3.1l-6,6.2l6.9,8.6h-3.2L185.7,96.7z"/>
	<path class="st4" d="M204.6,103.9c-1,0-2-0.2-2.9-0.5c-0.9-0.4-1.6-0.9-2.2-1.5c-0.6-0.6-1.1-1.4-1.4-2.3c-0.3-0.9-0.5-1.8-0.5-2.9
		v-0.6c0-1.2,0.2-2.3,0.6-3.2s0.9-1.7,1.5-2.4c0.6-0.7,1.4-1.2,2.2-1.5c0.8-0.3,1.6-0.5,2.5-0.5c1.1,0,2,0.2,2.8,0.6
		c0.8,0.4,1.5,0.9,2,1.5c0.5,0.7,0.9,1.4,1.2,2.3c0.3,0.9,0.4,1.8,0.4,2.9v1.1h-10.6c0,0.7,0.2,1.3,0.4,1.9c0.2,0.6,0.6,1.1,1,1.6
		c0.4,0.4,0.9,0.8,1.5,1c0.6,0.3,1.2,0.4,1.9,0.4c0.9,0,1.7-0.2,2.4-0.5c0.7-0.4,1.3-0.8,1.8-1.4l1.5,1.2c-0.2,0.4-0.6,0.7-0.9,1.1
		s-0.8,0.6-1.3,0.9c-0.5,0.3-1,0.5-1.6,0.6C206,103.8,205.4,103.9,204.6,103.9z M204.3,90.6c-0.5,0-1,0.1-1.4,0.3
		c-0.5,0.2-0.9,0.5-1.2,0.8c-0.4,0.4-0.7,0.8-0.9,1.3c-0.3,0.5-0.4,1.1-0.5,1.8h8v-0.2c0-0.5-0.1-1-0.3-1.5
		c-0.2-0.5-0.4-0.9-0.7-1.3c-0.3-0.4-0.7-0.7-1.2-0.9C205.5,90.7,205,90.6,204.3,90.6z"/>
	<path class="st4" d="M220.4,98.4l0.7,1.8l4.5-11.3h2.8l-7.5,17.1c-0.2,0.4-0.4,0.8-0.7,1.2c-0.3,0.4-0.6,0.8-1,1.2
		c-0.4,0.4-0.8,0.7-1.3,0.9c-0.5,0.2-1.1,0.4-1.8,0.4c-0.1,0-0.3,0-0.4,0c-0.1,0-0.3,0-0.4-0.1c-0.1,0-0.3,0-0.4-0.1
		c-0.1,0-0.2-0.1-0.3-0.1l0.4-2.1c0.1,0,0.2,0,0.3,0c0.1,0,0.2,0,0.3,0c0.1,0,0.2,0,0.3,0c0.1,0,0.2,0,0.3,0c0.3,0,0.7-0.1,1-0.3
		s0.5-0.4,0.8-0.7c0.2-0.3,0.4-0.5,0.6-0.8c0.2-0.3,0.3-0.5,0.4-0.7l1-2l-6.4-14.1h2.8L220.4,98.4z"/>
	<path class="st4" d="M241.5,99.7c0-0.3-0.1-0.6-0.2-0.8c-0.1-0.2-0.3-0.5-0.6-0.7c-0.3-0.2-0.7-0.4-1.1-0.6c-0.5-0.2-1-0.3-1.7-0.5
		c-0.8-0.2-1.6-0.4-2.3-0.6s-1.3-0.5-1.8-0.9c-0.5-0.3-0.9-0.7-1.2-1.2c-0.3-0.5-0.4-1-0.4-1.6c0-0.6,0.1-1.2,0.4-1.7
		c0.3-0.5,0.7-1,1.2-1.4c0.5-0.4,1.1-0.7,1.8-0.9c0.7-0.2,1.5-0.3,2.3-0.3c0.9,0,1.7,0.1,2.5,0.4c0.7,0.2,1.3,0.6,1.9,1
		c0.5,0.4,0.9,0.9,1.2,1.5c0.3,0.6,0.4,1.2,0.4,1.8h-2.5c0-0.3-0.1-0.6-0.2-0.9c-0.2-0.3-0.4-0.6-0.7-0.8c-0.3-0.2-0.6-0.4-1.1-0.6
		c-0.4-0.1-0.9-0.2-1.4-0.2c-0.5,0-1,0.1-1.4,0.2c-0.4,0.1-0.7,0.3-1,0.5c-0.3,0.2-0.5,0.4-0.6,0.7c-0.1,0.3-0.2,0.5-0.2,0.8
		c0,0.3,0.1,0.6,0.2,0.8c0.1,0.2,0.3,0.4,0.6,0.6c0.3,0.2,0.6,0.3,1.1,0.5c0.5,0.1,1,0.3,1.7,0.4c0.9,0.2,1.7,0.4,2.4,0.7
		c0.7,0.3,1.3,0.6,1.8,0.9c0.5,0.4,0.9,0.8,1.1,1.2s0.4,1,0.4,1.6c0,0.7-0.1,1.3-0.4,1.8c-0.3,0.5-0.7,1-1.2,1.4
		c-0.5,0.4-1.2,0.7-1.9,0.9s-1.5,0.3-2.4,0.3c-1,0-1.9-0.1-2.7-0.4c-0.8-0.3-1.4-0.6-2-1.1c-0.5-0.4-1-1-1.2-1.5
		c-0.3-0.6-0.4-1.2-0.4-1.8h2.5c0,0.5,0.2,1,0.4,1.3c0.2,0.4,0.5,0.6,0.9,0.9c0.4,0.2,0.8,0.4,1.2,0.5c0.4,0.1,0.9,0.1,1.3,0.1
		c1.1,0,1.9-0.2,2.5-0.6C241.2,100.8,241.5,100.3,241.5,99.7z"/>
	<path class="st5" d="M277.5,92.9h-12.2v-2.2h12.2V92.9z M277.5,98.6h-12.2v-2.2h12.2V98.6z"/>
	<path class="st6" d="M307.8,82.9h-3v22.9h3v2.1h-5.4v-27h5.4V82.9z"/>
	<path class="st6" d="M125.1,142.2c-0.6,0-1.1-0.1-1.6-0.3c-0.5-0.2-0.9-0.4-1.3-0.7c-0.4-0.3-0.7-0.7-1-1.1
		c-0.3-0.4-0.5-0.9-0.7-1.3c-0.2-0.5-0.3-1-0.4-1.4c-0.1-0.5-0.1-1-0.1-1.5v-2.3c0-1.3-0.3-2.3-0.9-2.9c-0.6-0.6-1.6-0.9-2.9-0.9v-2
		c1.3,0,2.2-0.3,2.9-0.9c0.6-0.6,0.9-1.5,0.9-2.9v-2.3c0-0.5,0-1,0.1-1.5c0.1-0.5,0.2-1,0.4-1.4c0.2-0.5,0.4-0.9,0.7-1.3
		c0.3-0.4,0.6-0.8,1-1.1c0.4-0.3,0.8-0.6,1.3-0.7c0.5-0.2,1.1-0.3,1.7-0.3l0.3,1.6c-0.7,0-1.2,0.2-1.6,0.5c-0.4,0.3-0.7,0.7-0.9,1.1
		c-0.2,0.5-0.3,1-0.4,1.5c-0.1,0.6-0.1,1.1-0.1,1.7v2.3c0,1.1-0.3,2.1-0.8,2.9c-0.5,0.8-1.3,1.5-2.3,1.9c1.1,0.4,1.8,1,2.3,1.9
		c0.5,0.8,0.8,1.8,0.8,2.9v2.3c0,0.6,0,1.1,0.1,1.7c0.1,0.6,0.2,1.1,0.5,1.5c0.2,0.5,0.5,0.8,0.9,1.1c0.4,0.3,0.8,0.4,1.4,0.5
		L125.1,142.2z"/>
	<path class="st7" d="M152.1,163.9l-1.9,1.8v5.1h-2.5v-21h2.5v12.9l1.7-1.8l4.9-4.9h3.1l-6,6.2l6.9,8.6h-3.2L152.1,163.9z"/>
	<path class="st7" d="M171,171.1c-1,0-2-0.2-2.9-0.5c-0.9-0.4-1.6-0.9-2.2-1.5c-0.6-0.6-1.1-1.4-1.4-2.3c-0.3-0.9-0.5-1.8-0.5-2.9
		v-0.6c0-1.2,0.2-2.3,0.6-3.2s0.9-1.7,1.5-2.4c0.6-0.7,1.4-1.2,2.2-1.5c0.8-0.3,1.6-0.5,2.5-0.5c1.1,0,2,0.2,2.8,0.6
		c0.8,0.4,1.5,0.9,2,1.5c0.5,0.7,0.9,1.4,1.2,2.3c0.3,0.9,0.4,1.8,0.4,2.9v1.1h-10.6c0,0.7,0.2,1.3,0.4,1.9c0.2,0.6,0.6,1.1,1,1.6
		c0.4,0.4,0.9,0.8,1.5,1c0.6,0.3,1.2,0.4,1.9,0.4c0.9,0,1.7-0.2,2.4-0.5c0.7-0.4,1.3-0.8,1.8-1.4l1.5,1.2c-0.2,0.4-0.6,0.7-0.9,1.1
		s-0.8,0.6-1.3,0.9c-0.5,0.3-1,0.5-1.6,0.6C172.4,171,171.8,171.1,171,171.1z M170.7,157.8c-0.5,0-1,0.1-1.4,0.3
		c-0.5,0.2-0.9,0.5-1.2,0.8c-0.4,0.4-0.7,0.8-0.9,1.3c-0.3,0.5-0.4,1.1-0.5,1.8h8v-0.2c0-0.5-0.1-1-0.3-1.5
		c-0.2-0.5-0.4-0.9-0.7-1.3c-0.3-0.4-0.7-0.7-1.2-0.9C171.9,157.9,171.4,157.8,170.7,157.8z"/>
	<path class="st7" d="M186.8,165.6l0.7,1.8l4.5-11.3h2.8l-7.5,17.1c-0.2,0.4-0.4,0.8-0.7,1.2c-0.3,0.4-0.6,0.8-1,1.2
		c-0.4,0.4-0.8,0.7-1.3,0.9c-0.5,0.2-1.1,0.4-1.8,0.4c-0.1,0-0.3,0-0.4,0c-0.1,0-0.3,0-0.4-0.1c-0.1,0-0.3,0-0.4-0.1
		c-0.1,0-0.2-0.1-0.3-0.1l0.4-2.1c0.1,0,0.2,0,0.3,0c0.1,0,0.2,0,0.3,0c0.1,0,0.2,0,0.3,0c0.1,0,0.2,0,0.3,0c0.3,0,0.7-0.1,1-0.3
		s0.5-0.4,0.8-0.7c0.2-0.3,0.4-0.5,0.6-0.8c0.2-0.3,0.3-0.5,0.4-0.7l1-2l-6.4-14.1h2.8L186.8,165.6z"/>
	<path class="st7" d="M211.5,153.1h-6.2v17.7h-2.5v-17.7h-6.2v-2.2h14.8V153.1z"/>
	<path class="st7" d="M215.3,156h7.6v12.6h4.8v2.2h-12.4v-2.2h5v-10.4h-5V156z M220,152.1c0-0.4,0.1-0.8,0.4-1.1
		c0.3-0.3,0.6-0.4,1.1-0.4c0.5,0,0.9,0.1,1.1,0.4c0.3,0.3,0.4,0.6,0.4,1.1c0,0.4-0.1,0.8-0.4,1c-0.3,0.3-0.6,0.4-1.1,0.4
		c-0.5,0-0.9-0.1-1.1-0.4C220.1,152.9,220,152.5,220,152.1z"/>
	<path class="st7" d="M232.9,156l0.1,1.4c0.3-0.5,0.7-0.9,1.2-1.2c0.5-0.3,1.1-0.4,1.8-0.5c1.4,0,2.3,0.5,2.7,1.6
		c0.3-0.5,0.7-0.9,1.2-1.1s1.1-0.4,1.7-0.4c1.1,0,1.9,0.3,2.5,1c0.6,0.7,0.9,1.7,0.9,3v11h-2.4v-11.1c0-1.2-0.6-1.9-1.7-1.8
		c-0.3,0-0.6,0-0.8,0.1s-0.4,0.2-0.5,0.3c-0.1,0.1-0.3,0.3-0.3,0.5c-0.1,0.2-0.1,0.4-0.2,0.6v11.4h-2.4v-11.1c0-0.6-0.1-1-0.4-1.4
		c-0.3-0.3-0.7-0.5-1.3-0.5c-0.5,0-0.9,0.1-1.2,0.3c-0.3,0.2-0.5,0.5-0.6,0.8v11.8h-2.4V156H232.9z"/>
	<path class="st7" d="M255.1,171.1c-1,0-2-0.2-2.9-0.5c-0.9-0.4-1.6-0.9-2.2-1.5c-0.6-0.6-1.1-1.4-1.4-2.3c-0.3-0.9-0.5-1.8-0.5-2.9
		v-0.6c0-1.2,0.2-2.3,0.6-3.2s0.9-1.7,1.5-2.4c0.6-0.7,1.4-1.2,2.2-1.5c0.8-0.3,1.6-0.5,2.5-0.5c1.1,0,2,0.2,2.8,0.6
		c0.8,0.4,1.5,0.9,2,1.5c0.5,0.7,0.9,1.4,1.2,2.3c0.3,0.9,0.4,1.8,0.4,2.9v1.1h-10.6c0,0.7,0.2,1.3,0.4,1.9c0.2,0.6,0.6,1.1,1,1.6
		c0.4,0.4,0.9,0.8,1.5,1c0.6,0.3,1.2,0.4,1.9,0.4c0.9,0,1.7-0.2,2.4-0.5c0.7-0.4,1.3-0.8,1.8-1.4l1.5,1.2c-0.2,0.4-0.6,0.7-0.9,1.1
		s-0.8,0.6-1.3,0.9c-0.5,0.3-1,0.5-1.6,0.6C256.4,171,255.8,171.1,255.1,171.1z M254.7,157.8c-0.5,0-1,0.1-1.4,0.3
		c-0.5,0.2-0.9,0.5-1.2,0.8c-0.4,0.4-0.7,0.8-0.9,1.3c-0.3,0.5-0.4,1.1-0.5,1.8h8v-0.2c0-0.5-0.1-1-0.3-1.5
		c-0.2-0.5-0.4-0.9-0.7-1.3c-0.3-0.4-0.7-0.7-1.2-0.9C255.9,157.9,255.4,157.8,254.7,157.8z"/>
	<path class="st6" d="M270.4,157.2c0-0.3,0-0.5,0.1-0.8c0.1-0.2,0.2-0.4,0.4-0.6s0.4-0.3,0.6-0.4c0.2-0.1,0.5-0.2,0.9-0.2
		s0.6,0.1,0.9,0.2c0.3,0.1,0.5,0.2,0.6,0.4c0.2,0.2,0.3,0.4,0.4,0.6c0.1,0.2,0.1,0.5,0.1,0.8c0,0.3,0,0.5-0.1,0.7
		c-0.1,0.2-0.2,0.4-0.4,0.6c-0.2,0.2-0.4,0.3-0.6,0.4c-0.3,0.1-0.5,0.1-0.9,0.1s-0.6,0-0.9-0.1s-0.5-0.2-0.6-0.4
		c-0.2-0.2-0.3-0.4-0.4-0.6C270.5,157.7,270.4,157.4,270.4,157.2z M270.4,169.2c0-0.3,0-0.5,0.1-0.8c0.1-0.2,0.2-0.4,0.4-0.6
		s0.4-0.3,0.6-0.4c0.2-0.1,0.5-0.2,0.9-0.2s0.6,0.1,0.9,0.2c0.3,0.1,0.5,0.2,0.6,0.4c0.2,0.2,0.3,0.4,0.4,0.6
		c0.1,0.2,0.1,0.5,0.1,0.8c0,0.3,0,0.5-0.1,0.7c-0.1,0.2-0.2,0.4-0.4,0.6c-0.2,0.2-0.4,0.3-0.6,0.4c-0.3,0.1-0.5,0.1-0.9,0.1
		s-0.6,0-0.9-0.1s-0.5-0.2-0.6-0.4c-0.2-0.2-0.3-0.4-0.4-0.6C270.5,169.7,270.4,169.4,270.4,169.2z"/>
	<path class="st1" d="M311.4,163.2c0,1.3-0.1,2.4-0.4,3.4c-0.3,1-0.7,1.8-1.3,2.5s-1.2,1.2-2,1.5s-1.7,0.5-2.7,0.5
		c-1,0-1.9-0.2-2.7-0.5c-0.8-0.3-1.5-0.9-2-1.5c-0.6-0.7-1-1.5-1.3-2.5c-0.3-1-0.4-2.1-0.4-3.4v-4.7c0-1.3,0.1-2.4,0.4-3.4
		c0.3-1,0.7-1.8,1.3-2.5c0.6-0.7,1.2-1.2,2-1.5c0.8-0.4,1.7-0.5,2.7-0.5c1,0,1.9,0.2,2.7,0.5c0.8,0.4,1.5,0.9,2,1.5
		c0.6,0.7,1,1.5,1.3,2.5c0.3,1,0.4,2.1,0.4,3.4V163.2z M301.1,162.7l7.8-5.9c-0.1-1.3-0.5-2.3-1.2-3c-0.6-0.7-1.5-1-2.7-1
		c-1.3,0-2.3,0.4-2.9,1.3c-0.6,0.9-1,2.2-1,3.9V162.7z M308.9,159.2l-7.7,5.9c0.2,1.3,0.6,2.3,1.2,2.9c0.6,0.7,1.5,1,2.7,1
		c1.3,0,2.3-0.5,2.9-1.4c0.6-0.9,0.9-2.2,0.9-3.9V159.2z"/>
	<path class="st6" d="M322.1,170.2c0,0.4-0.1,0.9-0.2,1.3c-0.1,0.5-0.3,0.9-0.5,1.4c-0.2,0.5-0.5,0.9-0.7,1.3
		c-0.3,0.4-0.6,0.8-1,1.1l-1.6-0.9c0.4-0.6,0.7-1.3,0.9-2c0.2-0.7,0.3-1.5,0.3-2.2v-2.4h2.7V170.2z"/>
	<path class="st7" d="M152.1,197.5l-1.9,1.8v5.1h-2.5v-21h2.5v12.9l1.7-1.8l4.9-4.9h3.1l-6,6.2l6.9,8.6h-3.2L152.1,197.5z"/>
	<path class="st7" d="M171,204.7c-1,0-2-0.2-2.9-0.5c-0.9-0.4-1.6-0.9-2.2-1.5c-0.6-0.6-1.1-1.4-1.4-2.3c-0.3-0.9-0.5-1.8-0.5-2.9
		V197c0-1.2,0.2-2.3,0.6-3.2s0.9-1.7,1.5-2.4c0.6-0.7,1.4-1.2,2.2-1.5c0.8-0.3,1.6-0.5,2.5-0.5c1.1,0,2,0.2,2.8,0.6
		c0.8,0.4,1.5,0.9,2,1.5c0.5,0.7,0.9,1.4,1.2,2.3c0.3,0.9,0.4,1.8,0.4,2.9v1.1h-10.6c0,0.7,0.2,1.3,0.4,1.9c0.2,0.6,0.6,1.1,1,1.6
		c0.4,0.4,0.9,0.8,1.5,1c0.6,0.3,1.2,0.4,1.9,0.4c0.9,0,1.7-0.2,2.4-0.5c0.7-0.4,1.3-0.8,1.8-1.4l1.5,1.2c-0.2,0.4-0.6,0.7-0.9,1.1
		s-0.8,0.6-1.3,0.9c-0.5,0.3-1,0.5-1.6,0.6C172.4,204.6,171.8,204.7,171,204.7z M170.7,191.4c-0.5,0-1,0.1-1.4,0.3
		c-0.5,0.2-0.9,0.5-1.2,0.8c-0.4,0.4-0.7,0.8-0.9,1.3c-0.3,0.5-0.4,1.1-0.5,1.8h8v-0.2c0-0.5-0.1-1-0.3-1.5
		c-0.2-0.5-0.4-0.9-0.7-1.3c-0.3-0.4-0.7-0.7-1.2-0.9C171.9,191.5,171.4,191.4,170.7,191.4z"/>
	<path class="st7" d="M186.8,199.2l0.7,1.8l4.5-11.3h2.8l-7.5,17.1c-0.2,0.4-0.4,0.8-0.7,1.2c-0.3,0.4-0.6,0.8-1,1.2
		c-0.4,0.4-0.8,0.7-1.3,0.9c-0.5,0.2-1.1,0.4-1.8,0.4c-0.1,0-0.3,0-0.4,0c-0.1,0-0.3,0-0.4-0.1c-0.1,0-0.3,0-0.4-0.1
		c-0.1,0-0.2-0.1-0.3-0.1l0.4-2.1c0.1,0,0.2,0,0.3,0c0.1,0,0.2,0,0.3,0c0.1,0,0.2,0,0.3,0c0.1,0,0.2,0,0.3,0c0.3,0,0.7-0.1,1-0.3
		s0.5-0.4,0.8-0.7c0.2-0.3,0.4-0.5,0.6-0.8c0.2-0.3,0.3-0.5,0.4-0.7l1-2l-6.4-14.1h2.8L186.8,199.2z"/>
	<path class="st7" d="M204.1,200.3l4.7-15.8h2.7l-6.3,19.9H203l-6.3-19.9h2.7L204.1,200.3z"/>
	<path class="st7" d="M224.6,204.4c-0.1-0.2-0.2-0.4-0.2-0.7c-0.1-0.3-0.1-0.6-0.1-0.9c-0.3,0.3-0.5,0.5-0.9,0.7
		c-0.3,0.2-0.7,0.4-1,0.6c-0.4,0.2-0.8,0.3-1.2,0.4c-0.4,0.1-0.9,0.2-1.4,0.2c-0.8,0-1.5-0.1-2.1-0.3c-0.6-0.2-1.2-0.5-1.6-0.9
		c-0.4-0.4-0.8-0.8-1-1.4c-0.2-0.5-0.4-1.1-0.4-1.7c0-0.8,0.2-1.5,0.5-2.1c0.3-0.6,0.8-1.1,1.4-1.5c0.6-0.4,1.3-0.7,2.1-0.9
		c0.8-0.2,1.8-0.3,2.8-0.3h2.8v-1.2c0-0.4-0.1-0.8-0.2-1.2s-0.4-0.7-0.7-0.9c-0.3-0.3-0.7-0.4-1.1-0.6c-0.4-0.1-0.9-0.2-1.5-0.2
		c-0.5,0-1,0.1-1.3,0.2c-0.4,0.1-0.7,0.3-1,0.5c-0.3,0.2-0.5,0.5-0.6,0.7s-0.2,0.6-0.2,0.9H215c0-0.5,0.1-1.1,0.4-1.6
		c0.3-0.5,0.7-1,1.2-1.4c0.5-0.4,1.1-0.7,1.8-1c0.7-0.3,1.5-0.4,2.5-0.4c0.8,0,1.6,0.1,2.3,0.3c0.7,0.2,1.3,0.5,1.9,0.9
		c0.5,0.4,0.9,0.9,1.2,1.6c0.3,0.6,0.5,1.3,0.5,2.2v6.9c0,0.5,0,1,0.1,1.6c0.1,0.6,0.2,1,0.4,1.4v0.2H224.6z M220.2,202.5
		c0.5,0,1-0.1,1.4-0.2c0.4-0.1,0.8-0.3,1.2-0.5c0.4-0.2,0.7-0.4,0.9-0.7c0.3-0.3,0.5-0.5,0.6-0.8v-3h-2.4c-1.5,0-2.6,0.2-3.4,0.7
		s-1.2,1.1-1.2,2.1c0,0.4,0.1,0.7,0.2,1c0.1,0.3,0.3,0.6,0.6,0.8c0.2,0.2,0.6,0.4,0.9,0.5C219.2,202.4,219.7,202.5,220.2,202.5z"/>
	<path class="st7" d="M232.1,183.4h7.6v18.8h4.8v2.2h-12.4v-2.2h5v-16.6h-5V183.4z"/>
	<path class="st7" d="M258.1,202.4c-0.5,0.7-1.1,1.3-1.8,1.7s-1.6,0.6-2.6,0.6c-0.8,0-1.5-0.1-2.1-0.4s-1.2-0.6-1.6-1.1
		c-0.4-0.5-0.8-1.2-1-1.9c-0.2-0.8-0.4-1.7-0.4-2.8v-8.8h2.5v8.8c0,0.8,0.1,1.5,0.2,2c0.1,0.5,0.3,1,0.6,1.3
		c0.3,0.3,0.6,0.5,0.9,0.7c0.4,0.1,0.8,0.2,1.3,0.2c1,0,1.9-0.2,2.5-0.6c0.6-0.4,1.1-1,1.4-1.7v-10.6h2.5v14.8h-2.3L258.1,202.4z"/>
	<path class="st7" d="M271.9,204.7c-1,0-2-0.2-2.9-0.5c-0.9-0.4-1.6-0.9-2.2-1.5c-0.6-0.6-1.1-1.4-1.4-2.3c-0.3-0.9-0.5-1.8-0.5-2.9
		V197c0-1.2,0.2-2.3,0.6-3.2s0.9-1.7,1.5-2.4c0.6-0.7,1.4-1.2,2.2-1.5c0.8-0.3,1.6-0.5,2.5-0.5c1.1,0,2,0.2,2.8,0.6
		c0.8,0.4,1.5,0.9,2,1.5c0.5,0.7,0.9,1.4,1.2,2.3c0.3,0.9,0.4,1.8,0.4,2.9v1.1h-10.6c0,0.7,0.2,1.3,0.4,1.9c0.2,0.6,0.6,1.1,1,1.6
		c0.4,0.4,0.9,0.8,1.5,1c0.6,0.3,1.2,0.4,1.9,0.4c0.9,0,1.7-0.2,2.4-0.5c0.7-0.4,1.3-0.8,1.8-1.4l1.5,1.2c-0.2,0.4-0.6,0.7-0.9,1.1
		s-0.8,0.6-1.3,0.9c-0.5,0.3-1,0.5-1.6,0.6C273.2,204.6,272.6,204.7,271.9,204.7z M271.5,191.4c-0.5,0-1,0.1-1.4,0.3
		c-0.5,0.2-0.9,0.5-1.2,0.8c-0.4,0.4-0.7,0.8-0.9,1.3c-0.3,0.5-0.4,1.1-0.5,1.8h8v-0.2c0-0.5-0.1-1-0.3-1.5
		c-0.2-0.5-0.4-0.9-0.7-1.3c-0.3-0.4-0.7-0.7-1.2-0.9C272.7,191.5,272.2,191.4,271.5,191.4z"/>
	<path class="st6" d="M287.2,190.8c0-0.3,0-0.5,0.1-0.8c0.1-0.2,0.2-0.4,0.4-0.6s0.4-0.3,0.6-0.4c0.2-0.1,0.5-0.2,0.9-0.2
		s0.6,0.1,0.9,0.2c0.3,0.1,0.5,0.2,0.6,0.4c0.2,0.2,0.3,0.4,0.4,0.6c0.1,0.2,0.1,0.5,0.1,0.8c0,0.3,0,0.5-0.1,0.7
		c-0.1,0.2-0.2,0.4-0.4,0.6c-0.2,0.2-0.4,0.3-0.6,0.4c-0.3,0.1-0.5,0.1-0.9,0.1s-0.6,0-0.9-0.1s-0.5-0.2-0.6-0.4
		c-0.2-0.2-0.3-0.4-0.4-0.6C287.3,191.3,287.2,191,287.2,190.8z M287.2,202.8c0-0.3,0-0.5,0.1-0.8c0.1-0.2,0.2-0.4,0.4-0.6
		s0.4-0.3,0.6-0.4c0.2-0.1,0.5-0.2,0.9-0.2s0.6,0.1,0.9,0.2c0.3,0.1,0.5,0.2,0.6,0.4c0.2,0.2,0.3,0.4,0.4,0.6
		c0.1,0.2,0.1,0.5,0.1,0.8c0,0.3,0,0.5-0.1,0.7c-0.1,0.2-0.2,0.4-0.4,0.6c-0.2,0.2-0.4,0.3-0.6,0.4c-0.3,0.1-0.5,0.1-0.9,0.1
		s-0.6,0-0.9-0.1s-0.5-0.2-0.6-0.4c-0.2-0.2-0.3-0.4-0.4-0.6C287.3,203.3,287.2,203,287.2,202.8z"/>
	<path class="st6" d="M324.6,183.7h-3v22.9h3v2.1h-5.4v-27h5.4V183.7z"/>
	<path class="st1" d="M345,196.8c0,1.3-0.1,2.4-0.4,3.4c-0.3,1-0.7,1.8-1.3,2.5s-1.2,1.2-2,1.5s-1.7,0.5-2.7,0.5
		c-1,0-1.9-0.2-2.7-0.5c-0.8-0.3-1.5-0.9-2-1.5c-0.6-0.7-1-1.5-1.3-2.5c-0.3-1-0.4-2.1-0.4-3.4v-4.7c0-1.3,0.1-2.4,0.4-3.4
		c0.3-1,0.7-1.8,1.3-2.5c0.6-0.7,1.2-1.2,2-1.5c0.8-0.4,1.7-0.5,2.7-0.5c1,0,1.9,0.2,2.7,0.5c0.8,0.4,1.5,0.9,2,1.5
		c0.6,0.7,1,1.5,1.3,2.5c0.3,1,0.4,2.1,0.4,3.4V196.8z M334.7,196.3l7.8-5.9c-0.1-1.3-0.5-2.3-1.2-3c-0.6-0.7-1.5-1-2.7-1
		c-1.3,0-2.3,0.4-2.9,1.3c-0.6,0.9-1,2.2-1,3.9V196.3z M342.5,192.8l-7.7,5.9c0.2,1.3,0.6,2.3,1.2,2.9c0.6,0.7,1.5,1,2.7,1
		c1.3,0,2.3-0.5,2.9-1.4c0.6-0.9,0.9-2.2,0.9-3.9V192.8z"/>
	<path class="st6" d="M355.8,203.8c0,0.4-0.1,0.9-0.2,1.3c-0.1,0.5-0.3,0.9-0.5,1.4c-0.2,0.5-0.5,0.9-0.7,1.3
		c-0.3,0.4-0.6,0.8-1,1.1l-1.6-0.9c0.4-0.6,0.7-1.3,0.9-2c0.2-0.7,0.3-1.5,0.3-2.2v-2.4h2.7V203.8z"/>
	<path class="st1" d="M395.4,196.8c0,1.3-0.1,2.4-0.4,3.4c-0.3,1-0.7,1.8-1.3,2.5s-1.2,1.2-2,1.5s-1.7,0.5-2.7,0.5
		c-1,0-1.9-0.2-2.7-0.5c-0.8-0.3-1.5-0.9-2-1.5c-0.6-0.7-1-1.5-1.3-2.5c-0.3-1-0.4-2.1-0.4-3.4v-4.7c0-1.3,0.1-2.4,0.4-3.4
		c0.3-1,0.7-1.8,1.3-2.5c0.6-0.7,1.2-1.2,2-1.5c0.8-0.4,1.7-0.5,2.7-0.5c1,0,1.9,0.2,2.7,0.5c0.8,0.4,1.5,0.9,2,1.5
		c0.6,0.7,1,1.5,1.3,2.5c0.3,1,0.4,2.1,0.4,3.4V196.8z M385.1,196.3l7.8-5.9c-0.1-1.3-0.5-2.3-1.2-3c-0.6-0.7-1.5-1-2.7-1
		c-1.3,0-2.3,0.4-2.9,1.3c-0.6,0.9-1,2.2-1,3.9V196.3z M392.9,192.8l-7.7,5.9c0.2,1.3,0.6,2.3,1.2,2.9c0.6,0.7,1.5,1,2.7,1
		c1.3,0,2.3-0.5,2.9-1.4c0.6-0.9,0.9-2.2,0.9-3.9V192.8z"/>
	<path class="st6" d="M402.9,181.7h5.4v27h-5.4v-2.1h3v-22.9h-3V181.7z"/>
	<path class="st6" d="M423,203.8c0,0.4-0.1,0.9-0.2,1.3c-0.1,0.5-0.3,0.9-0.5,1.4c-0.2,0.5-0.5,0.9-0.7,1.3c-0.3,0.4-0.6,0.8-1,1.1
		l-1.6-0.9c0.4-0.6,0.7-1.3,0.9-2c0.2-0.7,0.3-1.5,0.3-2.2v-2.4h2.7V203.8z"/>
	<path class="st7" d="M154.2,238.3c-1,0-2-0.2-2.9-0.5c-0.9-0.4-1.6-0.9-2.2-1.5c-0.6-0.6-1.1-1.4-1.4-2.3c-0.3-0.9-0.5-1.8-0.5-2.9
		v-0.6c0-1.2,0.2-2.3,0.6-3.2s0.9-1.7,1.5-2.4c0.6-0.7,1.4-1.2,2.2-1.5c0.8-0.3,1.6-0.5,2.5-0.5c1.1,0,2,0.2,2.8,0.6
		c0.8,0.4,1.5,0.9,2,1.5c0.5,0.7,0.9,1.4,1.2,2.3c0.3,0.9,0.4,1.8,0.4,2.9v1.1h-10.6c0,0.7,0.2,1.3,0.4,1.9c0.2,0.6,0.6,1.1,1,1.6
		c0.4,0.4,0.9,0.8,1.5,1c0.6,0.3,1.2,0.4,1.9,0.4c0.9,0,1.7-0.2,2.4-0.5c0.7-0.4,1.3-0.8,1.8-1.4l1.5,1.2c-0.2,0.4-0.6,0.7-0.9,1.1
		s-0.8,0.6-1.3,0.9c-0.5,0.3-1,0.5-1.6,0.6C155.6,238.2,155,238.3,154.2,238.3z M153.9,225c-0.5,0-1,0.1-1.4,0.3
		c-0.5,0.2-0.9,0.5-1.2,0.8c-0.4,0.4-0.7,0.8-0.9,1.3c-0.3,0.5-0.4,1.1-0.5,1.8h8v-0.2c0-0.5-0.1-1-0.3-1.5
		c-0.2-0.5-0.4-0.9-0.7-1.3c-0.3-0.4-0.7-0.7-1.2-0.9C155.1,225.1,154.6,225,153.9,225z"/>
	<path class="st7" d="M174.2,238c-0.1-0.2-0.2-0.4-0.2-0.7c-0.1-0.3-0.1-0.6-0.1-0.9c-0.3,0.3-0.5,0.5-0.9,0.7
		c-0.3,0.2-0.7,0.4-1,0.6c-0.4,0.2-0.8,0.3-1.2,0.4c-0.4,0.1-0.9,0.2-1.4,0.2c-0.8,0-1.5-0.1-2.1-0.3c-0.6-0.2-1.2-0.5-1.6-0.9
		c-0.4-0.4-0.8-0.8-1-1.4c-0.2-0.5-0.4-1.1-0.4-1.7c0-0.8,0.2-1.5,0.5-2.1c0.3-0.6,0.8-1.1,1.4-1.5c0.6-0.4,1.3-0.7,2.1-0.9
		c0.8-0.2,1.8-0.3,2.8-0.3h2.8v-1.2c0-0.4-0.1-0.8-0.2-1.2s-0.4-0.7-0.7-0.9c-0.3-0.3-0.7-0.4-1.1-0.6c-0.4-0.1-0.9-0.2-1.5-0.2
		c-0.5,0-1,0.1-1.3,0.2c-0.4,0.1-0.7,0.3-1,0.5c-0.3,0.2-0.5,0.5-0.6,0.7s-0.2,0.6-0.2,0.9h-2.5c0-0.5,0.1-1.1,0.4-1.6
		c0.3-0.5,0.7-1,1.2-1.4c0.5-0.4,1.1-0.7,1.8-1c0.7-0.3,1.5-0.4,2.5-0.4c0.8,0,1.6,0.1,2.3,0.3c0.7,0.2,1.3,0.5,1.9,0.9
		c0.5,0.4,0.9,0.9,1.2,1.6c0.3,0.6,0.5,1.3,0.5,2.2v6.9c0,0.5,0,1,0.1,1.6c0.1,0.6,0.2,1,0.4,1.4v0.2H174.2z M169.8,236.1
		c0.5,0,1-0.1,1.4-0.2c0.4-0.1,0.8-0.3,1.2-0.5c0.4-0.2,0.7-0.4,0.9-0.7c0.3-0.3,0.5-0.5,0.6-0.8v-3h-2.4c-1.5,0-2.6,0.2-3.4,0.7
		s-1.2,1.1-1.2,2.1c0,0.4,0.1,0.7,0.2,1c0.1,0.3,0.3,0.6,0.6,0.8c0.2,0.2,0.6,0.4,0.9,0.5C168.8,236,169.3,236.1,169.8,236.1z"/>
	<path class="st7" d="M191.1,234.1c0-0.3-0.1-0.6-0.2-0.8c-0.1-0.2-0.3-0.5-0.6-0.7c-0.3-0.2-0.7-0.4-1.1-0.6
		c-0.5-0.2-1-0.3-1.7-0.5c-0.8-0.2-1.6-0.4-2.3-0.6s-1.3-0.5-1.8-0.9c-0.5-0.3-0.9-0.7-1.2-1.2c-0.3-0.5-0.4-1-0.4-1.6
		c0-0.6,0.1-1.2,0.4-1.7c0.3-0.5,0.7-1,1.2-1.4c0.5-0.4,1.1-0.7,1.8-0.9c0.7-0.2,1.5-0.3,2.3-0.3c0.9,0,1.7,0.1,2.5,0.4
		c0.7,0.2,1.3,0.6,1.9,1c0.5,0.4,0.9,0.9,1.2,1.5c0.3,0.6,0.4,1.2,0.4,1.8H191c0-0.3-0.1-0.6-0.2-0.9c-0.2-0.3-0.4-0.6-0.7-0.8
		c-0.3-0.2-0.6-0.4-1.1-0.6c-0.4-0.1-0.9-0.2-1.4-0.2c-0.5,0-1,0.1-1.4,0.2c-0.4,0.1-0.7,0.3-1,0.5c-0.3,0.2-0.5,0.4-0.6,0.7
		c-0.1,0.3-0.2,0.5-0.2,0.8c0,0.3,0.1,0.6,0.2,0.8c0.1,0.2,0.3,0.4,0.6,0.6c0.3,0.2,0.6,0.3,1.1,0.5c0.5,0.1,1,0.3,1.7,0.4
		c0.9,0.2,1.7,0.4,2.4,0.7c0.7,0.3,1.3,0.6,1.8,0.9c0.5,0.4,0.9,0.8,1.1,1.2s0.4,1,0.4,1.6c0,0.7-0.1,1.3-0.4,1.8
		c-0.3,0.5-0.7,1-1.2,1.4c-0.5,0.4-1.2,0.7-1.9,0.9s-1.5,0.3-2.4,0.3c-1,0-1.9-0.1-2.7-0.4c-0.8-0.3-1.4-0.6-2-1.1
		c-0.5-0.4-1-1-1.2-1.5c-0.3-0.6-0.4-1.2-0.4-1.8h2.5c0,0.5,0.2,1,0.4,1.3c0.2,0.4,0.5,0.6,0.9,0.9c0.4,0.2,0.8,0.4,1.2,0.5
		c0.4,0.1,0.9,0.1,1.3,0.1c1.1,0,1.9-0.2,2.5-0.6C190.8,235.2,191.1,234.7,191.1,234.1z"/>
	<path class="st7" d="M204.6,238.3c-1,0-2-0.2-2.9-0.5c-0.9-0.4-1.6-0.9-2.2-1.5c-0.6-0.6-1.1-1.4-1.4-2.3c-0.3-0.9-0.5-1.8-0.5-2.9
		v-0.6c0-1.2,0.2-2.3,0.6-3.2s0.9-1.7,1.5-2.4c0.6-0.7,1.4-1.2,2.2-1.5c0.8-0.3,1.6-0.5,2.5-0.5c1.1,0,2,0.2,2.8,0.6
		c0.8,0.4,1.5,0.9,2,1.5c0.5,0.7,0.9,1.4,1.2,2.3c0.3,0.9,0.4,1.8,0.4,2.9v1.1h-10.6c0,0.7,0.2,1.3,0.4,1.9c0.2,0.6,0.6,1.1,1,1.6
		c0.4,0.4,0.9,0.8,1.5,1c0.6,0.3,1.2,0.4,1.9,0.4c0.9,0,1.7-0.2,2.4-0.5c0.7-0.4,1.3-0.8,1.8-1.4l1.5,1.2c-0.2,0.4-0.6,0.7-0.9,1.1
		s-0.8,0.6-1.3,0.9c-0.5,0.3-1,0.5-1.6,0.6C206,238.2,205.4,238.3,204.6,238.3z M204.3,225c-0.5,0-1,0.1-1.4,0.3
		c-0.5,0.2-0.9,0.5-1.2,0.8c-0.4,0.4-0.7,0.8-0.9,1.3c-0.3,0.5-0.4,1.1-0.5,1.8h8v-0.2c0-0.5-0.1-1-0.3-1.5
		c-0.2-0.5-0.4-0.9-0.7-1.3c-0.3-0.4-0.7-0.7-1.2-0.9C205.5,225.1,205,225,204.3,225z"/>
	<path class="st7" d="M227.9,229.2c0,0.7-0.1,1.4-0.2,2.2c-0.1,0.7-0.3,1.4-0.5,2.1c-0.2,0.7-0.5,1.3-0.9,1.9
		c-0.4,0.6-0.8,1.1-1.3,1.5c-0.5,0.4-1.1,0.8-1.8,1c-0.7,0.3-1.4,0.4-2.2,0.4s-1.6-0.1-2.2-0.4c-0.7-0.3-1.2-0.6-1.8-1
		c-0.5-0.4-1-1-1.3-1.5c-0.4-0.6-0.7-1.2-0.9-1.9c-0.2-0.7-0.4-1.4-0.5-2.1c-0.1-0.7-0.2-1.4-0.2-2.1v-2.3c0-0.7,0.1-1.4,0.2-2.2
		c0.1-0.7,0.3-1.4,0.5-2.1c0.2-0.7,0.5-1.3,0.9-1.9s0.8-1.1,1.3-1.5c0.5-0.4,1.1-0.8,1.8-1c0.7-0.3,1.4-0.4,2.2-0.4s1.6,0.1,2.2,0.4
		c0.7,0.3,1.3,0.6,1.8,1c0.5,0.4,1,1,1.3,1.5s0.7,1.2,0.9,1.9c0.2,0.7,0.4,1.4,0.5,2.1c0.1,0.7,0.2,1.4,0.2,2.2V229.2z M225.4,226.9
		c0-0.5,0-1-0.1-1.5c-0.1-0.5-0.1-1-0.3-1.5c-0.1-0.5-0.3-1-0.5-1.4c-0.2-0.5-0.5-0.9-0.8-1.2c-0.3-0.4-0.7-0.6-1.2-0.8
		c-0.4-0.2-1-0.3-1.6-0.3c-0.6,0-1.1,0.1-1.5,0.3c-0.4,0.2-0.8,0.5-1.2,0.8c-0.3,0.4-0.6,0.8-0.8,1.2c-0.2,0.5-0.4,0.9-0.5,1.4
		c-0.1,0.5-0.2,1-0.3,1.5c-0.1,0.5-0.1,1-0.1,1.5v2.3c0,0.5,0,1,0.1,1.5c0.1,0.5,0.2,1,0.3,1.5s0.3,1,0.5,1.5s0.5,0.9,0.8,1.2
		c0.3,0.4,0.7,0.6,1.2,0.8c0.4,0.2,1,0.3,1.6,0.3c0.6,0,1.1-0.1,1.6-0.3c0.5-0.2,0.8-0.5,1.2-0.8c0.3-0.4,0.6-0.8,0.8-1.2
		c0.2-0.5,0.4-0.9,0.5-1.4c0.1-0.5,0.2-1,0.3-1.5c0-0.5,0.1-1,0.1-1.5V226.9z"/>
	<path class="st7" d="M241.3,236c-0.5,0.7-1.1,1.3-1.8,1.7s-1.6,0.6-2.6,0.6c-0.8,0-1.5-0.1-2.1-0.4s-1.2-0.6-1.6-1.1
		c-0.4-0.5-0.8-1.2-1-1.9c-0.2-0.8-0.4-1.7-0.4-2.8v-8.8h2.5v8.8c0,0.8,0.1,1.5,0.2,2c0.1,0.5,0.3,1,0.6,1.3
		c0.3,0.3,0.6,0.5,0.9,0.7c0.4,0.1,0.8,0.2,1.3,0.2c1,0,1.9-0.2,2.5-0.6c0.6-0.4,1.1-1,1.4-1.7v-10.6h2.5V238h-2.3L241.3,236z"/>
	<path class="st7" d="M254.5,219.6v3.6h5.6v2h-5.6v8c0,0.6,0.1,1,0.2,1.4c0.1,0.4,0.3,0.7,0.6,0.9c0.3,0.2,0.5,0.4,0.9,0.5
		c0.3,0.1,0.7,0.1,1.1,0.1c0.3,0,0.6,0,0.8,0c0.3,0,0.6-0.1,0.9-0.1c0.3,0,0.5-0.1,0.8-0.1c0.2,0,0.4-0.1,0.6-0.1l0.4,1.8
		c-0.2,0.1-0.5,0.2-0.8,0.3s-0.6,0.2-1,0.2s-0.7,0.1-1.1,0.2c-0.4,0-0.8,0.1-1.2,0.1c-0.7,0-1.3-0.1-1.8-0.3
		c-0.6-0.2-1.1-0.5-1.5-0.9c-0.4-0.4-0.8-0.9-1-1.6c-0.2-0.6-0.4-1.4-0.4-2.3v-8h-3.9v-2h3.9v-3.6H254.5z"/>
	<path class="st6" d="M270.4,224.4c0-0.3,0-0.5,0.1-0.8c0.1-0.2,0.2-0.4,0.4-0.6s0.4-0.3,0.6-0.4c0.2-0.1,0.5-0.2,0.9-0.2
		s0.6,0.1,0.9,0.2c0.3,0.1,0.5,0.2,0.6,0.4c0.2,0.2,0.3,0.4,0.4,0.6c0.1,0.2,0.1,0.5,0.1,0.8c0,0.3,0,0.5-0.1,0.7
		c-0.1,0.2-0.2,0.4-0.4,0.6c-0.2,0.2-0.4,0.3-0.6,0.4c-0.3,0.1-0.5,0.1-0.9,0.1s-0.6,0-0.9-0.1s-0.5-0.2-0.6-0.4
		c-0.2-0.2-0.3-0.4-0.4-0.6C270.5,224.9,270.4,224.6,270.4,224.4z M270.4,236.4c0-0.3,0-0.5,0.1-0.8c0.1-0.2,0.2-0.4,0.4-0.6
		s0.4-0.3,0.6-0.4c0.2-0.1,0.5-0.2,0.9-0.2s0.6,0.1,0.9,0.2c0.3,0.1,0.5,0.2,0.6,0.4c0.2,0.2,0.3,0.4,0.4,0.6
		c0.1,0.2,0.1,0.5,0.1,0.8c0,0.3,0,0.5-0.1,0.7c-0.1,0.2-0.2,0.4-0.4,0.6c-0.2,0.2-0.4,0.3-0.6,0.4c-0.3,0.1-0.5,0.1-0.9,0.1
		s-0.6,0-0.9-0.1s-0.5-0.2-0.6-0.4c-0.2-0.2-0.3-0.4-0.4-0.6C270.5,236.9,270.4,236.6,270.4,236.4z"/>
	<path class="st1" d="M308.3,218.1v2.3H308c-0.8,0-1.6,0.1-2.2,0.3c-0.7,0.2-1.2,0.4-1.7,0.7c-0.5,0.3-0.9,0.7-1.3,1.1
		c-0.4,0.4-0.7,0.9-0.9,1.4c-0.2,0.5-0.4,1-0.5,1.5c-0.1,0.5-0.2,1.1-0.2,1.6c0.2-0.3,0.5-0.5,0.8-0.8c0.3-0.2,0.6-0.5,1-0.6
		c0.4-0.2,0.7-0.3,1.2-0.4c0.4-0.1,0.8-0.2,1.3-0.2c1,0,1.9,0.2,2.6,0.6c0.7,0.4,1.3,0.9,1.8,1.5c0.5,0.6,0.8,1.3,1,2.1
		c0.2,0.8,0.3,1.6,0.3,2.4c0,0.9-0.1,1.8-0.4,2.6s-0.6,1.5-1.2,2.2s-1.2,1.1-1.9,1.5c-0.8,0.4-1.7,0.5-2.7,0.5c-0.7,0-1.4-0.1-2-0.3
		c-0.6-0.2-1.1-0.5-1.6-0.9c-0.5-0.4-0.9-0.8-1.2-1.3s-0.6-1-0.9-1.6c-0.2-0.6-0.4-1.2-0.5-1.8c-0.1-0.6-0.2-1.2-0.2-1.8v-1.2
		c0-0.9,0.1-1.8,0.2-2.7c0.1-0.9,0.3-1.8,0.6-2.6c0.3-0.8,0.6-1.6,1.1-2.4c0.5-0.7,1.1-1.4,1.8-1.9c0.7-0.5,1.5-1,2.5-1.3
		c1-0.3,2.1-0.5,3.4-0.5H308.3z M304.9,227.1c-0.4,0-0.8,0.1-1.2,0.2c-0.4,0.1-0.8,0.3-1.1,0.6c-0.3,0.2-0.7,0.5-0.9,0.9
		c-0.3,0.3-0.5,0.7-0.6,1.1v0.8c0,0.9,0.1,1.7,0.3,2.3c0.2,0.7,0.5,1.3,0.8,1.7s0.8,0.8,1.2,1.1c0.5,0.2,1,0.4,1.5,0.4
		c0.6,0,1.1-0.1,1.6-0.3c0.5-0.2,0.8-0.5,1.2-0.9c0.3-0.4,0.6-0.9,0.7-1.4c0.2-0.6,0.2-1.2,0.2-1.8c0-0.6-0.1-1.2-0.2-1.7
		c-0.1-0.6-0.4-1-0.7-1.5c-0.3-0.4-0.7-0.8-1.1-1C306.1,227.2,305.6,227.1,304.9,227.1z"/>
	<path class="st1" d="M325.1,218.1v2.3h-0.2c-0.8,0-1.6,0.1-2.2,0.3c-0.7,0.2-1.2,0.4-1.7,0.7c-0.5,0.3-0.9,0.7-1.3,1.1
		c-0.4,0.4-0.7,0.9-0.9,1.4c-0.2,0.5-0.4,1-0.5,1.5c-0.1,0.5-0.2,1.1-0.2,1.6c0.2-0.3,0.5-0.5,0.8-0.8c0.3-0.2,0.6-0.5,1-0.6
		c0.4-0.2,0.7-0.3,1.2-0.4c0.4-0.1,0.8-0.2,1.3-0.2c1,0,1.9,0.2,2.6,0.6c0.7,0.4,1.3,0.9,1.8,1.5c0.5,0.6,0.8,1.3,1,2.1
		c0.2,0.8,0.3,1.6,0.3,2.4c0,0.9-0.1,1.8-0.4,2.6s-0.6,1.5-1.2,2.2s-1.2,1.1-1.9,1.5c-0.8,0.4-1.7,0.5-2.7,0.5c-0.7,0-1.4-0.1-2-0.3
		c-0.6-0.2-1.1-0.5-1.6-0.9c-0.5-0.4-0.9-0.8-1.2-1.3s-0.6-1-0.9-1.6c-0.2-0.6-0.4-1.2-0.5-1.8c-0.1-0.6-0.2-1.2-0.2-1.8v-1.2
		c0-0.9,0.1-1.8,0.2-2.7c0.1-0.9,0.3-1.8,0.6-2.6c0.3-0.8,0.6-1.6,1.1-2.4c0.5-0.7,1.1-1.4,1.8-1.9c0.7-0.5,1.5-1,2.5-1.3
		c1-0.3,2.1-0.5,3.4-0.5H325.1z M321.7,227.1c-0.4,0-0.8,0.1-1.2,0.2c-0.4,0.1-0.8,0.3-1.1,0.6c-0.3,0.2-0.7,0.5-0.9,0.9
		c-0.3,0.3-0.5,0.7-0.6,1.1v0.8c0,0.9,0.1,1.7,0.3,2.3c0.2,0.7,0.5,1.3,0.8,1.7s0.8,0.8,1.2,1.1c0.5,0.2,1,0.4,1.5,0.4
		c0.6,0,1.1-0.1,1.6-0.3c0.5-0.2,0.8-0.5,1.2-0.9c0.3-0.4,0.6-0.9,0.7-1.4c0.2-0.6,0.2-1.2,0.2-1.8c0-0.6-0.1-1.2-0.2-1.7
		c-0.1-0.6-0.4-1-0.7-1.5c-0.3-0.4-0.7-0.8-1.1-1C322.9,227.2,322.4,227.1,321.7,227.1z"/>
	<path class="st6" d="M338.9,237.4c0,0.4-0.1,0.9-0.2,1.3c-0.1,0.5-0.3,0.9-0.5,1.4c-0.2,0.5-0.5,0.9-0.7,1.3
		c-0.3,0.4-0.6,0.8-1,1.1l-1.6-0.9c0.4-0.6,0.7-1.3,0.9-2c0.2-0.7,0.3-1.5,0.3-2.2V235h2.7V237.4z"/>
	<path class="st6" d="M116.1,275c0.6,0,1-0.2,1.4-0.5c0.4-0.3,0.7-0.7,0.9-1.1c0.2-0.5,0.4-1,0.5-1.5s0.1-1.1,0.1-1.7v-2.3
		c0-1.1,0.3-2,0.8-2.9c0.5-0.8,1.3-1.4,2.3-1.9c-1.1-0.4-1.8-1.1-2.3-1.9c-0.5-0.8-0.8-1.8-0.8-2.9v-2.3c0-0.6,0-1.1-0.1-1.7
		c-0.1-0.6-0.2-1.1-0.4-1.5c-0.2-0.5-0.5-0.8-0.9-1.1c-0.4-0.3-0.9-0.4-1.6-0.5l0.3-1.6c0.6,0,1.2,0.1,1.7,0.3
		c0.5,0.2,0.9,0.4,1.3,0.7c0.4,0.3,0.7,0.7,1,1.1c0.3,0.4,0.5,0.9,0.7,1.3c0.2,0.5,0.3,1,0.4,1.4c0.1,0.5,0.1,1,0.1,1.5v2.3
		c0,1.3,0.3,2.3,0.9,2.9s1.6,0.9,2.9,0.9v2c-1.3,0-2.2,0.3-2.9,0.9c-0.6,0.6-0.9,1.5-0.9,2.9v2.3c0,0.7-0.1,1.5-0.3,2.2
		c-0.2,0.7-0.5,1.4-0.9,2c-0.4,0.6-1,1.1-1.6,1.5c-0.6,0.4-1.4,0.6-2.3,0.6L116.1,275z"/>
	<path class="st6" d="M137.3,271c0,0.4-0.1,0.9-0.2,1.3c-0.1,0.5-0.3,0.9-0.5,1.4s-0.5,0.9-0.7,1.3c-0.3,0.4-0.6,0.8-1,1.1l-1.6-0.9
		c0.4-0.6,0.7-1.3,0.9-2c0.2-0.7,0.3-1.5,0.3-2.2v-2.4h2.7V271z"/>
	<path class="st6" d="M158.7,276.6c-0.6,0-1.1-0.1-1.6-0.3c-0.5-0.2-0.9-0.4-1.3-0.7c-0.4-0.3-0.7-0.7-1-1.1
		c-0.3-0.4-0.5-0.8-0.7-1.3c-0.2-0.5-0.3-1-0.4-1.4c-0.1-0.5-0.1-1-0.1-1.5v-2.3c0-1.3-0.3-2.3-0.9-2.9c-0.6-0.6-1.6-0.9-2.9-0.9v-2
		c1.3,0,2.2-0.3,2.9-0.9c0.6-0.6,0.9-1.5,0.9-2.9v-2.3c0-0.5,0-1,0.1-1.5c0.1-0.5,0.2-1,0.4-1.4c0.2-0.5,0.4-0.9,0.7-1.3
		c0.3-0.4,0.6-0.8,1-1.1c0.4-0.3,0.8-0.6,1.3-0.7c0.5-0.2,1.1-0.3,1.7-0.3l0.3,1.6c-0.7,0-1.2,0.2-1.6,0.5c-0.4,0.3-0.7,0.7-0.9,1.1
		c-0.2,0.5-0.3,1-0.4,1.5c-0.1,0.6-0.1,1.1-0.1,1.7v2.3c0,1.1-0.3,2.1-0.8,2.9c-0.5,0.8-1.3,1.5-2.3,1.9c1.1,0.4,1.8,1,2.3,1.9
		c0.5,0.8,0.8,1.8,0.8,2.9v2.3c0,0.6,0,1.1,0.1,1.7c0.1,0.6,0.2,1.1,0.5,1.5c0.2,0.5,0.5,0.8,0.9,1.1c0.4,0.3,0.8,0.4,1.4,0.5
		L158.7,276.6z"/>
	<path class="st7" d="M152.1,298.3l-1.9,1.8v5.1h-2.5v-21h2.5v12.9l1.7-1.8l4.9-4.9h3.1l-6,6.2l6.9,8.6h-3.2L152.1,298.3z"/>
	<path class="st7" d="M171,305.5c-1,0-2-0.2-2.9-0.5c-0.9-0.4-1.6-0.9-2.2-1.5c-0.6-0.6-1.1-1.4-1.4-2.3c-0.3-0.9-0.5-1.8-0.5-2.9
		v-0.6c0-1.2,0.2-2.3,0.6-3.2s0.9-1.7,1.5-2.4c0.6-0.7,1.4-1.2,2.2-1.5c0.8-0.3,1.6-0.5,2.5-0.5c1.1,0,2,0.2,2.8,0.6
		c0.8,0.4,1.5,0.9,2,1.5c0.5,0.7,0.9,1.4,1.2,2.3c0.3,0.9,0.4,1.8,0.4,2.9v1.1h-10.6c0,0.7,0.2,1.3,0.4,1.9c0.2,0.6,0.6,1.1,1,1.6
		c0.4,0.4,0.9,0.8,1.5,1c0.6,0.3,1.2,0.4,1.9,0.4c0.9,0,1.7-0.2,2.4-0.5c0.7-0.4,1.3-0.8,1.8-1.4l1.5,1.2c-0.2,0.4-0.6,0.7-0.9,1.1
		s-0.8,0.6-1.3,0.9c-0.5,0.3-1,0.5-1.6,0.6C172.4,305.4,171.8,305.5,171,305.5z M170.7,292.2c-0.5,0-1,0.1-1.4,0.3
		c-0.5,0.2-0.9,0.5-1.2,0.8c-0.4,0.4-0.7,0.8-0.9,1.3c-0.3,0.5-0.4,1.1-0.5,1.8h8v-0.2c0-0.5-0.1-1-0.3-1.5
		c-0.2-0.5-0.4-0.9-0.7-1.3c-0.3-0.4-0.7-0.7-1.2-0.9C171.9,292.3,171.4,292.2,170.7,292.2z"/>
	<path class="st7" d="M186.8,300l0.7,1.8l4.5-11.3h2.8l-7.5,17.1c-0.2,0.4-0.4,0.8-0.7,1.2c-0.3,0.4-0.6,0.8-1,1.2
		c-0.4,0.4-0.8,0.7-1.3,0.9c-0.5,0.2-1.1,0.4-1.8,0.4c-0.1,0-0.3,0-0.4,0c-0.1,0-0.3,0-0.4-0.1c-0.1,0-0.3,0-0.4-0.1
		c-0.1,0-0.2,0-0.3-0.1l0.4-2.1c0.1,0,0.2,0,0.3,0c0.1,0,0.2,0,0.3,0c0.1,0,0.2,0,0.3,0c0.1,0,0.2,0,0.3,0c0.3,0,0.7-0.1,1-0.3
		s0.5-0.4,0.8-0.7c0.2-0.3,0.4-0.5,0.6-0.8c0.2-0.3,0.3-0.5,0.4-0.7l1-2l-6.4-14.1h2.8L186.8,300z"/>
	<path class="st7" d="M211.5,287.5h-6.2v17.7h-2.5v-17.7h-6.2v-2.2h14.8V287.5z"/>
	<path class="st7" d="M215.3,290.4h7.6V303h4.8v2.2h-12.4V303h5v-10.4h-5V290.4z M220,286.5c0-0.4,0.1-0.8,0.4-1.1
		c0.3-0.3,0.6-0.4,1.1-0.4c0.5,0,0.9,0.1,1.1,0.4c0.3,0.3,0.4,0.6,0.4,1.1c0,0.4-0.1,0.8-0.4,1c-0.3,0.3-0.6,0.4-1.1,0.4
		c-0.5,0-0.9-0.1-1.1-0.4C220.1,287.3,220,286.9,220,286.5z"/>
	<path class="st7" d="M232.9,290.4l0.1,1.4c0.3-0.5,0.7-0.9,1.2-1.2c0.5-0.3,1.1-0.4,1.8-0.5c1.4,0,2.3,0.5,2.7,1.6
		c0.3-0.5,0.7-0.9,1.2-1.1s1.1-0.4,1.7-0.4c1.1,0,1.9,0.3,2.5,1c0.6,0.7,0.9,1.7,0.9,3v11h-2.4v-11.1c0-1.2-0.6-1.9-1.7-1.8
		c-0.3,0-0.6,0-0.8,0.1s-0.4,0.2-0.5,0.3c-0.1,0.1-0.3,0.3-0.3,0.5c-0.1,0.2-0.1,0.4-0.2,0.6v11.4h-2.4v-11.1c0-0.6-0.1-1-0.4-1.4
		c-0.3-0.3-0.7-0.5-1.3-0.5c-0.5,0-0.9,0.1-1.2,0.3c-0.3,0.2-0.5,0.5-0.6,0.8v11.8h-2.4v-14.8H232.9z"/>
	<path class="st7" d="M255.1,305.5c-1,0-2-0.2-2.9-0.5c-0.9-0.4-1.6-0.9-2.2-1.5c-0.6-0.6-1.1-1.4-1.4-2.3c-0.3-0.9-0.5-1.8-0.5-2.9
		v-0.6c0-1.2,0.2-2.3,0.6-3.2s0.9-1.7,1.5-2.4c0.6-0.7,1.4-1.2,2.2-1.5c0.8-0.3,1.6-0.5,2.5-0.5c1.1,0,2,0.2,2.8,0.6
		c0.8,0.4,1.5,0.9,2,1.5c0.5,0.7,0.9,1.4,1.2,2.3c0.3,0.9,0.4,1.8,0.4,2.9v1.1h-10.6c0,0.7,0.2,1.3,0.4,1.9c0.2,0.6,0.6,1.1,1,1.6
		c0.4,0.4,0.9,0.8,1.5,1c0.6,0.3,1.2,0.4,1.9,0.4c0.9,0,1.7-0.2,2.4-0.5c0.7-0.4,1.3-0.8,1.8-1.4l1.5,1.2c-0.2,0.4-0.6,0.7-0.9,1.1
		s-0.8,0.6-1.3,0.9c-0.5,0.3-1,0.5-1.6,0.6C256.4,305.4,255.8,305.5,255.1,305.5z M254.7,292.2c-0.5,0-1,0.1-1.4,0.3
		c-0.5,0.2-0.9,0.5-1.2,0.8c-0.4,0.4-0.7,0.8-0.9,1.3c-0.3,0.5-0.4,1.1-0.5,1.8h8v-0.2c0-0.5-0.1-1-0.3-1.5
		c-0.2-0.5-0.4-0.9-0.7-1.3c-0.3-0.4-0.7-0.7-1.2-0.9C255.9,292.3,255.4,292.2,254.7,292.2z"/>
	<path class="st6" d="M270.4,291.6c0-0.3,0-0.5,0.1-0.8c0.1-0.2,0.2-0.4,0.4-0.6s0.4-0.3,0.6-0.4c0.2-0.1,0.5-0.2,0.9-0.2
		s0.6,0.1,0.9,0.2c0.3,0.1,0.5,0.2,0.6,0.4c0.2,0.2,0.3,0.4,0.4,0.6c0.1,0.2,0.1,0.5,0.1,0.8c0,0.3,0,0.5-0.1,0.7
		c-0.1,0.2-0.2,0.4-0.4,0.6c-0.2,0.2-0.4,0.3-0.6,0.4c-0.3,0.1-0.5,0.1-0.9,0.1s-0.6,0-0.9-0.1s-0.5-0.2-0.6-0.4
		c-0.2-0.2-0.3-0.4-0.4-0.6C270.5,292.1,270.4,291.8,270.4,291.6z M270.4,303.6c0-0.3,0-0.5,0.1-0.8c0.1-0.2,0.2-0.4,0.4-0.6
		s0.4-0.3,0.6-0.4c0.2-0.1,0.5-0.2,0.9-0.2s0.6,0.1,0.9,0.2c0.3,0.1,0.5,0.2,0.6,0.4c0.2,0.2,0.3,0.4,0.4,0.6
		c0.1,0.2,0.1,0.5,0.1,0.8c0,0.3,0,0.5-0.1,0.7c-0.1,0.2-0.2,0.4-0.4,0.6c-0.2,0.2-0.4,0.3-0.6,0.4c-0.3,0.1-0.5,0.1-0.9,0.1
		s-0.6,0-0.9-0.1s-0.5-0.2-0.6-0.4c-0.2-0.2-0.3-0.4-0.4-0.6C270.5,304.1,270.4,303.8,270.4,303.6z"/>
	<path class="st1" d="M307.1,305.2h-2.5v-16.7l-5.2,2v-2.3l7.5-2.9h0.2V305.2z"/>
	<path class="st6" d="M322.1,304.6c0,0.4-0.1,0.9-0.2,1.3c-0.1,0.5-0.3,0.9-0.5,1.4c-0.2,0.5-0.5,0.9-0.7,1.3
		c-0.3,0.4-0.6,0.8-1,1.1l-1.6-0.9c0.4-0.6,0.7-1.3,0.9-2c0.2-0.7,0.3-1.5,0.3-2.2v-2.4h2.7V304.6z"/>
	<path class="st7" d="M152.1,331.9l-1.9,1.8v5.1h-2.5v-21h2.5v12.9l1.7-1.8l4.9-4.9h3.1l-6,6.2l6.9,8.6h-3.2L152.1,331.9z"/>
	<path class="st7" d="M171,339.1c-1,0-2-0.2-2.9-0.5c-0.9-0.4-1.6-0.9-2.2-1.5c-0.6-0.6-1.1-1.4-1.4-2.3c-0.3-0.9-0.5-1.8-0.5-2.9
		v-0.6c0-1.2,0.2-2.3,0.6-3.2s0.9-1.7,1.5-2.4c0.6-0.7,1.4-1.2,2.2-1.5s1.6-0.5,2.5-0.5c1.1,0,2,0.2,2.8,0.6c0.8,0.4,1.5,0.9,2,1.5
		c0.5,0.7,0.9,1.4,1.2,2.3s0.4,1.8,0.4,2.9v1.1h-10.6c0,0.7,0.2,1.3,0.4,1.9s0.6,1.1,1,1.6c0.4,0.4,0.9,0.8,1.5,1
		c0.6,0.3,1.2,0.4,1.9,0.4c0.9,0,1.7-0.2,2.4-0.5c0.7-0.4,1.3-0.8,1.8-1.4l1.5,1.2c-0.2,0.4-0.6,0.7-0.9,1.1s-0.8,0.6-1.3,0.9
		c-0.5,0.3-1,0.5-1.6,0.6C172.4,339,171.8,339.1,171,339.1z M170.7,325.8c-0.5,0-1,0.1-1.4,0.3c-0.5,0.2-0.9,0.5-1.2,0.8
		c-0.4,0.4-0.7,0.8-0.9,1.3c-0.3,0.5-0.4,1.1-0.5,1.8h8v-0.2c0-0.5-0.1-1-0.3-1.5c-0.2-0.5-0.4-0.9-0.7-1.3
		c-0.3-0.4-0.7-0.7-1.2-0.9C171.9,325.9,171.4,325.8,170.7,325.8z"/>
	<path class="st7" d="M186.8,333.6l0.7,1.8l4.5-11.3h2.8l-7.5,17.1c-0.2,0.4-0.4,0.8-0.7,1.2c-0.3,0.4-0.6,0.8-1,1.2
		s-0.8,0.7-1.3,0.9c-0.5,0.2-1.1,0.4-1.8,0.4c-0.1,0-0.3,0-0.4,0c-0.1,0-0.3,0-0.4-0.1c-0.1,0-0.3,0-0.4-0.1c-0.1,0-0.2,0-0.3-0.1
		l0.4-2.1c0.1,0,0.2,0,0.3,0s0.2,0,0.3,0c0.1,0,0.2,0,0.3,0s0.2,0,0.3,0c0.3,0,0.7-0.1,1-0.3s0.5-0.4,0.8-0.7
		c0.2-0.3,0.4-0.5,0.6-0.8c0.2-0.3,0.3-0.5,0.4-0.7l1-2l-6.4-14.1h2.8L186.8,333.6z"/>
	<path class="st7" d="M204.1,334.7l4.7-15.8h2.7l-6.3,19.9H203l-6.3-19.9h2.7L204.1,334.7z"/>
	<path class="st7" d="M224.6,338.8c-0.1-0.2-0.2-0.4-0.2-0.7c-0.1-0.3-0.1-0.6-0.1-0.9c-0.3,0.3-0.5,0.5-0.9,0.7s-0.7,0.4-1,0.6
		c-0.4,0.2-0.8,0.3-1.2,0.4c-0.4,0.1-0.9,0.2-1.4,0.2c-0.8,0-1.5-0.1-2.1-0.3c-0.6-0.2-1.2-0.5-1.6-0.9c-0.4-0.4-0.8-0.8-1-1.4
		c-0.2-0.5-0.4-1.1-0.4-1.7c0-0.8,0.2-1.5,0.5-2.1c0.3-0.6,0.8-1.1,1.4-1.5c0.6-0.4,1.3-0.7,2.1-0.9s1.8-0.3,2.8-0.3h2.8v-1.2
		c0-0.4-0.1-0.8-0.2-1.2s-0.4-0.7-0.7-0.9s-0.7-0.4-1.1-0.6c-0.4-0.1-0.9-0.2-1.5-0.2c-0.5,0-1,0.1-1.3,0.2s-0.7,0.3-1,0.5
		s-0.5,0.5-0.6,0.7s-0.2,0.6-0.2,0.9H215c0-0.5,0.1-1.1,0.4-1.6c0.3-0.5,0.7-1,1.2-1.4s1.1-0.8,1.8-1s1.5-0.4,2.5-0.4
		c0.8,0,1.6,0.1,2.3,0.3c0.7,0.2,1.3,0.5,1.9,0.9c0.5,0.4,0.9,0.9,1.2,1.6s0.5,1.3,0.5,2.2v6.9c0,0.5,0,1,0.1,1.6
		c0.1,0.6,0.2,1,0.4,1.4v0.2H224.6z M220.2,336.9c0.5,0,1-0.1,1.4-0.2c0.4-0.1,0.8-0.3,1.2-0.5c0.4-0.2,0.7-0.4,0.9-0.7
		c0.3-0.3,0.5-0.5,0.6-0.8v-3h-2.4c-1.5,0-2.6,0.2-3.4,0.7s-1.2,1.1-1.2,2.1c0,0.4,0.1,0.7,0.2,1s0.3,0.6,0.6,0.8s0.6,0.4,0.9,0.5
		C219.2,336.8,219.7,336.9,220.2,336.9z"/>
	<path class="st7" d="M232.1,317.8h7.6v18.8h4.8v2.2h-12.4v-2.2h5V320h-5V317.8z"/>
	<path class="st7" d="M258.1,336.8c-0.5,0.7-1.1,1.3-1.8,1.7s-1.6,0.6-2.6,0.6c-0.8,0-1.5-0.1-2.1-0.4s-1.2-0.6-1.6-1.1
		c-0.4-0.5-0.8-1.2-1-1.9c-0.2-0.8-0.4-1.7-0.4-2.8V324h2.5v8.8c0,0.8,0.1,1.5,0.2,2c0.1,0.5,0.3,1,0.6,1.3c0.3,0.3,0.6,0.5,0.9,0.7
		s0.8,0.2,1.3,0.2c1,0,1.9-0.2,2.5-0.6c0.6-0.4,1.1-1,1.4-1.7V324h2.5v14.8h-2.3L258.1,336.8z"/>
	<path class="st7" d="M271.9,339.1c-1,0-2-0.2-2.9-0.5c-0.9-0.4-1.6-0.9-2.2-1.5c-0.6-0.6-1.1-1.4-1.4-2.3c-0.3-0.9-0.5-1.8-0.5-2.9
		v-0.6c0-1.2,0.2-2.3,0.6-3.2s0.9-1.7,1.5-2.4c0.6-0.7,1.4-1.2,2.2-1.5s1.6-0.5,2.5-0.5c1.1,0,2,0.2,2.8,0.6c0.8,0.4,1.5,0.9,2,1.5
		c0.5,0.7,0.9,1.4,1.2,2.3s0.4,1.8,0.4,2.9v1.1h-10.6c0,0.7,0.2,1.3,0.4,1.9s0.6,1.1,1,1.6c0.4,0.4,0.9,0.8,1.5,1
		c0.6,0.3,1.2,0.4,1.9,0.4c0.9,0,1.7-0.2,2.4-0.5c0.7-0.4,1.3-0.8,1.8-1.4l1.5,1.2c-0.2,0.4-0.6,0.7-0.9,1.1s-0.8,0.6-1.3,0.9
		c-0.5,0.3-1,0.5-1.6,0.6C273.2,339,272.6,339.1,271.9,339.1z M271.5,325.8c-0.5,0-1,0.1-1.4,0.3c-0.5,0.2-0.9,0.5-1.2,0.8
		c-0.4,0.4-0.7,0.8-0.9,1.3c-0.3,0.5-0.4,1.1-0.5,1.8h8v-0.2c0-0.5-0.1-1-0.3-1.5c-0.2-0.5-0.4-0.9-0.7-1.3
		c-0.3-0.4-0.7-0.7-1.2-0.9C272.7,325.9,272.2,325.8,271.5,325.8z"/>
	<path class="st6" d="M287.2,325.2c0-0.3,0-0.5,0.1-0.8c0.1-0.2,0.2-0.4,0.4-0.6s0.4-0.3,0.6-0.4s0.5-0.2,0.9-0.2s0.6,0,0.9,0.2
		c0.3,0.1,0.5,0.2,0.6,0.4c0.2,0.2,0.3,0.4,0.4,0.6c0.1,0.2,0.1,0.5,0.1,0.8c0,0.3,0,0.5-0.1,0.7c-0.1,0.2-0.2,0.4-0.4,0.6
		c-0.2,0.2-0.4,0.3-0.6,0.4c-0.3,0.1-0.5,0.1-0.9,0.1s-0.6,0-0.9-0.1s-0.5-0.2-0.6-0.4s-0.3-0.4-0.4-0.6
		C287.3,325.7,287.2,325.4,287.2,325.2z M287.2,337.2c0-0.3,0-0.5,0.1-0.8c0.1-0.2,0.2-0.4,0.4-0.6s0.4-0.3,0.6-0.4s0.5-0.2,0.9-0.2
		s0.6,0,0.9,0.2c0.3,0.1,0.5,0.2,0.6,0.4c0.2,0.2,0.3,0.4,0.4,0.6c0.1,0.2,0.1,0.5,0.1,0.8c0,0.3,0,0.5-0.1,0.7
		c-0.1,0.2-0.2,0.4-0.4,0.6c-0.2,0.2-0.4,0.3-0.6,0.4c-0.3,0.1-0.5,0.1-0.9,0.1s-0.6,0-0.9-0.1s-0.5-0.2-0.6-0.4s-0.3-0.4-0.4-0.6
		C287.3,337.7,287.2,337.4,287.2,337.2z"/>
	<path class="st6" d="M324.6,318.1h-3V341h3v2.1h-5.4v-27h5.4V318.1z"/>
	<path class="st1" d="M344.8,324.1c0,1-0.3,1.9-0.8,2.7c-0.5,0.8-1.2,1.4-2.1,1.8c0.5,0.2,1,0.5,1.4,0.8c0.4,0.3,0.8,0.7,1.1,1.1
		c0.3,0.4,0.5,0.9,0.7,1.4c0.2,0.5,0.2,1,0.2,1.6c0,0.9-0.2,1.7-0.5,2.4c-0.3,0.7-0.8,1.3-1.4,1.8c-0.6,0.5-1.2,0.8-2,1.1
		s-1.6,0.4-2.5,0.4c-0.9,0-1.7-0.1-2.5-0.4c-0.8-0.2-1.4-0.6-2-1.1c-0.6-0.5-1-1.1-1.3-1.8s-0.5-1.5-0.5-2.4c0-0.6,0.1-1.1,0.2-1.6
		c0.2-0.5,0.4-1,0.7-1.4c0.3-0.4,0.6-0.8,1.1-1.1s0.9-0.6,1.4-0.8c-0.4-0.2-0.8-0.5-1.2-0.8s-0.7-0.6-0.9-1s-0.4-0.8-0.6-1.2
		s-0.2-0.9-0.2-1.4c0-0.9,0.1-1.6,0.4-2.3c0.3-0.7,0.7-1.3,1.2-1.7c0.5-0.5,1.1-0.8,1.8-1.1c0.7-0.2,1.5-0.4,2.3-0.4
		c0.8,0,1.6,0.1,2.3,0.4c0.7,0.2,1.3,0.6,1.9,1.1c0.5,0.5,0.9,1,1.2,1.7S344.8,323.2,344.8,324.1z M342.7,333.4
		c0-0.6-0.1-1.1-0.3-1.5c-0.2-0.5-0.4-0.9-0.8-1.2c-0.3-0.3-0.7-0.6-1.2-0.8c-0.5-0.2-1-0.3-1.5-0.3c-0.6,0-1.1,0.1-1.6,0.3
		s-0.9,0.4-1.2,0.8s-0.6,0.7-0.8,1.2s-0.3,1-0.3,1.5c0,0.6,0.1,1.1,0.3,1.5s0.4,0.8,0.8,1.1s0.7,0.5,1.2,0.7c0.5,0.2,1,0.2,1.6,0.2
		c0.6,0,1.1-0.1,1.5-0.2s0.9-0.4,1.2-0.7c0.3-0.3,0.6-0.7,0.8-1.1C342.6,334.5,342.7,333.9,342.7,333.4z M342.2,324.1
		c0-0.5-0.1-1-0.3-1.4c-0.2-0.4-0.4-0.8-0.7-1.1c-0.3-0.3-0.6-0.5-1.1-0.7s-0.9-0.3-1.4-0.3s-0.9,0.1-1.3,0.2
		c-0.4,0.2-0.7,0.4-1,0.7c-0.3,0.3-0.5,0.7-0.7,1.1c-0.2,0.4-0.2,0.9-0.2,1.4s0.1,1,0.2,1.4c0.2,0.4,0.4,0.8,0.7,1.1
		c0.3,0.3,0.6,0.5,1.1,0.7c0.4,0.2,0.9,0.2,1.3,0.2c0.5,0,0.9-0.1,1.3-0.2s0.8-0.4,1.1-0.7c0.3-0.3,0.5-0.7,0.7-1.1
		S342.2,324.6,342.2,324.1z"/>
	<path class="st1" d="M361.8,331.2c0,1.3-0.1,2.4-0.4,3.4c-0.3,1-0.7,1.8-1.3,2.5s-1.2,1.2-2,1.5s-1.7,0.5-2.7,0.5
		c-1,0-1.9-0.2-2.7-0.5c-0.8-0.3-1.5-0.9-2-1.5c-0.6-0.7-1-1.5-1.3-2.5c-0.3-1-0.4-2.1-0.4-3.4v-4.7c0-1.3,0.1-2.4,0.4-3.4
		c0.3-1,0.7-1.8,1.3-2.5c0.6-0.7,1.2-1.2,2-1.5c0.8-0.4,1.7-0.5,2.7-0.5c1,0,1.9,0.2,2.7,0.5c0.8,0.4,1.5,0.9,2,1.5
		c0.6,0.7,1,1.5,1.3,2.5c0.3,1,0.4,2.1,0.4,3.4V331.2z M351.5,330.7l7.8-5.9c-0.1-1.3-0.5-2.3-1.2-3c-0.6-0.7-1.5-1-2.7-1
		c-1.3,0-2.3,0.4-2.9,1.3c-0.6,0.9-1,2.2-1,3.9V330.7z M359.3,327.2l-7.7,5.9c0.2,1.3,0.6,2.3,1.2,2.9c0.6,0.7,1.5,1,2.7,1
		c1.3,0,2.3-0.5,2.9-1.4c0.6-0.9,0.9-2.2,0.9-3.9V327.2z"/>
	<path class="st6" d="M372.6,338.2c0,0.4-0.1,0.9-0.2,1.3c-0.1,0.5-0.3,0.9-0.5,1.4s-0.5,0.9-0.7,1.3c-0.3,0.4-0.6,0.8-1,1.1
		l-1.6-0.9c0.4-0.6,0.7-1.3,0.9-2c0.2-0.7,0.3-1.5,0.3-2.2v-2.4h2.7V338.2z"/>
	<path class="st1" d="M402.7,327.6h1.8c0.6,0,1.2-0.1,1.7-0.3c0.5-0.2,0.9-0.4,1.2-0.7c0.3-0.3,0.6-0.7,0.8-1.1
		c0.2-0.4,0.3-0.9,0.3-1.4c0-1.2-0.3-2-0.9-2.6c-0.6-0.6-1.5-0.9-2.6-0.9c-0.5,0-1,0.1-1.5,0.2c-0.4,0.2-0.8,0.4-1.1,0.7
		s-0.6,0.7-0.7,1.1c-0.2,0.4-0.3,0.9-0.3,1.4h-2.5c0-0.8,0.1-1.5,0.4-2.1c0.3-0.7,0.7-1.3,1.3-1.8c0.5-0.5,1.2-0.9,1.9-1.2
		s1.6-0.4,2.5-0.4c0.9,0,1.7,0.1,2.4,0.4s1.4,0.6,1.9,1.1c0.5,0.5,0.9,1.1,1.2,1.8c0.3,0.7,0.4,1.5,0.4,2.4c0,0.4-0.1,0.8-0.2,1.2
		c-0.1,0.4-0.3,0.8-0.5,1.2s-0.6,0.8-1,1.1c-0.4,0.3-0.9,0.6-1.4,0.9c0.6,0.2,1.2,0.5,1.6,0.8c0.4,0.3,0.8,0.7,1,1.1
		s0.4,0.9,0.5,1.3c0.1,0.5,0.2,0.9,0.2,1.4c0,0.9-0.2,1.8-0.5,2.5c-0.3,0.7-0.8,1.3-1.3,1.8c-0.6,0.5-1.2,0.9-2,1.1
		c-0.8,0.3-1.6,0.4-2.5,0.4c-0.9,0-1.7-0.1-2.5-0.4c-0.8-0.2-1.4-0.6-2-1.1c-0.6-0.5-1-1.1-1.3-1.7c-0.3-0.7-0.5-1.5-0.5-2.3h2.5
		c0,0.5,0.1,1,0.3,1.4s0.4,0.8,0.8,1.1s0.7,0.5,1.2,0.7c0.5,0.2,1,0.2,1.6,0.2s1.1-0.1,1.6-0.2s0.9-0.4,1.2-0.7s0.6-0.7,0.8-1.2
		s0.3-1,0.3-1.6c0-0.6-0.1-1.2-0.3-1.6s-0.5-0.8-0.9-1.1s-0.8-0.5-1.3-0.7c-0.5-0.1-1.1-0.2-1.7-0.2h-1.8V327.6z"/>
	<path class="st1" d="M429,331.2c0,1.3-0.1,2.4-0.4,3.4c-0.3,1-0.7,1.8-1.3,2.5s-1.2,1.2-2,1.5s-1.7,0.5-2.7,0.5
		c-1,0-1.9-0.2-2.7-0.5c-0.8-0.3-1.5-0.9-2-1.5c-0.6-0.7-1-1.5-1.3-2.5c-0.3-1-0.4-2.1-0.4-3.4v-4.7c0-1.3,0.1-2.4,0.4-3.4
		c0.3-1,0.7-1.8,1.3-2.5c0.6-0.7,1.2-1.2,2-1.5c0.8-0.4,1.7-0.5,2.7-0.5c1,0,1.9,0.2,2.7,0.5c0.8,0.4,1.5,0.9,2,1.5
		c0.6,0.7,1,1.5,1.3,2.5c0.3,1,0.4,2.1,0.4,3.4V331.2z M418.7,330.7l7.8-5.9c-0.1-1.3-0.5-2.3-1.2-3c-0.6-0.7-1.5-1-2.7-1
		c-1.3,0-2.3,0.4-2.9,1.3c-0.6,0.9-1,2.2-1,3.9V330.7z M426.5,327.2l-7.7,5.9c0.2,1.3,0.6,2.3,1.2,2.9c0.6,0.7,1.5,1,2.7,1
		c1.3,0,2.3-0.5,2.9-1.4c0.6-0.9,0.9-2.2,0.9-3.9V327.2z"/>
	<path class="st1" d="M445.8,331.2c0,1.3-0.1,2.4-0.4,3.4c-0.3,1-0.7,1.8-1.3,2.5s-1.2,1.2-2,1.5s-1.7,0.5-2.7,0.5
		c-1,0-1.9-0.2-2.7-0.5c-0.8-0.3-1.5-0.9-2-1.5c-0.6-0.7-1-1.5-1.3-2.5c-0.3-1-0.4-2.1-0.4-3.4v-4.7c0-1.3,0.1-2.4,0.4-3.4
		c0.3-1,0.7-1.8,1.3-2.5c0.6-0.7,1.2-1.2,2-1.5c0.8-0.4,1.7-0.5,2.7-0.5c1,0,1.9,0.2,2.7,0.5c0.8,0.4,1.5,0.9,2,1.5
		c0.6,0.7,1,1.5,1.3,2.5c0.3,1,0.4,2.1,0.4,3.4V331.2z M435.5,330.7l7.8-5.9c-0.1-1.3-0.5-2.3-1.2-3c-0.6-0.7-1.5-1-2.7-1
		c-1.3,0-2.3,0.4-2.9,1.3c-0.6,0.9-1,2.2-1,3.9V330.7z M443.3,327.2l-7.7,5.9c0.2,1.3,0.6,2.3,1.2,2.9c0.6,0.7,1.5,1,2.7,1
		c1.3,0,2.3-0.5,2.9-1.4c0.6-0.9,0.9-2.2,0.9-3.9V327.2z"/>
	<path class="st6" d="M453.3,316.1h5.4v27h-5.4V341h3v-22.9h-3V316.1z"/>
	<path class="st6" d="M473.4,338.2c0,0.4-0.1,0.9-0.2,1.3c-0.1,0.5-0.3,0.9-0.5,1.4s-0.5,0.9-0.7,1.3c-0.3,0.4-0.6,0.8-1,1.1
		l-1.6-0.9c0.4-0.6,0.7-1.3,0.9-2c0.2-0.7,0.3-1.5,0.3-2.2v-2.4h2.7V338.2z"/>
	<path class="st7" d="M154.2,372.7c-1,0-2-0.2-2.9-0.5c-0.9-0.4-1.6-0.9-2.2-1.5c-0.6-0.6-1.1-1.4-1.4-2.3c-0.3-0.9-0.5-1.8-0.5-2.9
		V365c0-1.2,0.2-2.3,0.6-3.2s0.9-1.7,1.5-2.4c0.6-0.7,1.4-1.2,2.2-1.5s1.6-0.5,2.5-0.5c1.1,0,2,0.2,2.8,0.6c0.8,0.4,1.5,0.9,2,1.5
		c0.5,0.7,0.9,1.4,1.2,2.3s0.4,1.8,0.4,2.9v1.1h-10.6c0,0.7,0.2,1.3,0.4,1.9s0.6,1.1,1,1.6c0.4,0.4,0.9,0.8,1.5,1
		c0.6,0.3,1.2,0.4,1.9,0.4c0.9,0,1.7-0.2,2.4-0.5c0.7-0.4,1.3-0.8,1.8-1.4l1.5,1.2c-0.2,0.4-0.6,0.7-0.9,1.1s-0.8,0.6-1.3,0.9
		c-0.5,0.3-1,0.5-1.6,0.6C155.6,372.6,155,372.7,154.2,372.7z M153.9,359.4c-0.5,0-1,0.1-1.4,0.3c-0.5,0.2-0.9,0.5-1.2,0.8
		c-0.4,0.4-0.7,0.8-0.9,1.3c-0.3,0.5-0.4,1.1-0.5,1.8h8v-0.2c0-0.5-0.1-1-0.3-1.5c-0.2-0.5-0.4-0.9-0.7-1.3
		c-0.3-0.4-0.7-0.7-1.2-0.9C155.1,359.5,154.6,359.4,153.9,359.4z"/>
	<path class="st7" d="M174.2,372.4c-0.1-0.2-0.2-0.4-0.2-0.7c-0.1-0.3-0.1-0.6-0.1-0.9c-0.3,0.3-0.5,0.5-0.9,0.7s-0.7,0.4-1,0.6
		c-0.4,0.2-0.8,0.3-1.2,0.4c-0.4,0.1-0.9,0.2-1.4,0.2c-0.8,0-1.5-0.1-2.1-0.3c-0.6-0.2-1.2-0.5-1.6-0.9c-0.4-0.4-0.8-0.8-1-1.4
		c-0.2-0.5-0.4-1.1-0.4-1.7c0-0.8,0.2-1.5,0.5-2.1c0.3-0.6,0.8-1.1,1.4-1.5c0.6-0.4,1.3-0.7,2.1-0.9s1.8-0.3,2.8-0.3h2.8v-1.2
		c0-0.4-0.1-0.8-0.2-1.2s-0.4-0.7-0.7-0.9s-0.7-0.4-1.1-0.6c-0.4-0.1-0.9-0.2-1.5-0.2c-0.5,0-1,0.1-1.3,0.2s-0.7,0.3-1,0.5
		s-0.5,0.5-0.6,0.7s-0.2,0.6-0.2,0.9h-2.5c0-0.5,0.1-1.1,0.4-1.6c0.3-0.5,0.7-1,1.2-1.4s1.1-0.8,1.8-1s1.5-0.4,2.5-0.4
		c0.8,0,1.6,0.1,2.3,0.3c0.7,0.2,1.3,0.5,1.9,0.9c0.5,0.4,0.9,0.9,1.2,1.6s0.5,1.3,0.5,2.2v6.9c0,0.5,0,1,0.1,1.6
		c0.1,0.6,0.2,1,0.4,1.4v0.2H174.2z M169.8,370.5c0.5,0,1-0.1,1.4-0.2c0.4-0.1,0.8-0.3,1.2-0.5c0.4-0.2,0.7-0.4,0.9-0.7
		c0.3-0.3,0.5-0.5,0.6-0.8v-3h-2.4c-1.5,0-2.6,0.2-3.4,0.7s-1.2,1.1-1.2,2.1c0,0.4,0.1,0.7,0.2,1s0.3,0.6,0.6,0.8s0.6,0.4,0.9,0.5
		C168.8,370.4,169.3,370.5,169.8,370.5z"/>
	<path class="st7" d="M191.1,368.5c0-0.3-0.1-0.6-0.2-0.8c-0.1-0.2-0.3-0.5-0.6-0.7c-0.3-0.2-0.7-0.4-1.1-0.6s-1-0.3-1.7-0.5
		c-0.8-0.2-1.6-0.4-2.3-0.6s-1.3-0.5-1.8-0.9c-0.5-0.3-0.9-0.7-1.2-1.2s-0.4-1-0.4-1.6c0-0.6,0.1-1.2,0.4-1.7c0.3-0.5,0.7-1,1.2-1.4
		c0.5-0.4,1.1-0.7,1.8-0.9c0.7-0.2,1.5-0.3,2.3-0.3c0.9,0,1.7,0.1,2.5,0.4c0.7,0.2,1.3,0.6,1.9,1c0.5,0.4,0.9,0.9,1.2,1.5
		c0.3,0.6,0.4,1.2,0.4,1.8H191c0-0.3-0.1-0.6-0.2-0.9s-0.4-0.6-0.7-0.8c-0.3-0.2-0.6-0.4-1.1-0.6c-0.4-0.1-0.9-0.2-1.4-0.2
		c-0.5,0-1,0.1-1.4,0.2c-0.4,0.1-0.7,0.3-1,0.5c-0.3,0.2-0.5,0.4-0.6,0.7s-0.2,0.5-0.2,0.8c0,0.3,0.1,0.6,0.2,0.8s0.3,0.4,0.6,0.6
		c0.3,0.2,0.6,0.3,1.1,0.5s1,0.3,1.7,0.4c0.9,0.2,1.7,0.4,2.4,0.7c0.7,0.3,1.3,0.6,1.8,0.9s0.9,0.8,1.1,1.2s0.4,1,0.4,1.6
		c0,0.7-0.1,1.3-0.4,1.8c-0.3,0.5-0.7,1-1.2,1.4c-0.5,0.4-1.2,0.7-1.9,0.9s-1.5,0.3-2.4,0.3c-1,0-1.9-0.1-2.7-0.4
		c-0.8-0.3-1.4-0.6-2-1.1c-0.5-0.4-1-1-1.2-1.5s-0.4-1.2-0.4-1.8h2.5c0,0.5,0.2,1,0.4,1.3c0.2,0.4,0.5,0.6,0.9,0.9
		c0.4,0.2,0.8,0.4,1.2,0.5s0.9,0.1,1.3,0.1c1.1,0,1.9-0.2,2.5-0.6C190.8,369.6,191.1,369.1,191.1,368.5z"/>
	<path class="st7" d="M204.6,372.7c-1,0-2-0.2-2.9-0.5c-0.9-0.4-1.6-0.9-2.2-1.5c-0.6-0.6-1.1-1.4-1.4-2.3c-0.3-0.9-0.5-1.8-0.5-2.9
		V365c0-1.2,0.2-2.3,0.6-3.2s0.9-1.7,1.5-2.4c0.6-0.7,1.4-1.2,2.2-1.5s1.6-0.5,2.5-0.5c1.1,0,2,0.2,2.8,0.6c0.8,0.4,1.5,0.9,2,1.5
		c0.5,0.7,0.9,1.4,1.2,2.3s0.4,1.8,0.4,2.9v1.1h-10.6c0,0.7,0.2,1.3,0.4,1.9s0.6,1.1,1,1.6c0.4,0.4,0.9,0.8,1.5,1
		c0.6,0.3,1.2,0.4,1.9,0.4c0.9,0,1.7-0.2,2.4-0.5c0.7-0.4,1.3-0.8,1.8-1.4l1.5,1.2c-0.2,0.4-0.6,0.7-0.9,1.1s-0.8,0.6-1.3,0.9
		c-0.5,0.3-1,0.5-1.6,0.6C206,372.6,205.4,372.7,204.6,372.7z M204.3,359.4c-0.5,0-1,0.1-1.4,0.3c-0.5,0.2-0.9,0.5-1.2,0.8
		c-0.4,0.4-0.7,0.8-0.9,1.3c-0.3,0.5-0.4,1.1-0.5,1.8h8v-0.2c0-0.5-0.1-1-0.3-1.5c-0.2-0.5-0.4-0.9-0.7-1.3
		c-0.3-0.4-0.7-0.7-1.2-0.9C205.5,359.5,205,359.4,204.3,359.4z"/>
	<path class="st7" d="M214.9,352.5h12v2.2h-4.8v15.5h4.8v2.2h-12v-2.2h4.7v-15.5h-4.7V352.5z"/>
	<path class="st7" d="M234,357.6l0.2,2.2c0.5-0.8,1.2-1.4,2-1.8c0.8-0.4,1.7-0.7,2.6-0.7c0.8,0,1.5,0.1,2.1,0.3
		c0.6,0.2,1.2,0.6,1.6,1c0.4,0.5,0.8,1.1,1,1.8c0.2,0.7,0.4,1.6,0.4,2.5v9.4h-2.5v-9.3c0-0.7-0.1-1.2-0.2-1.7
		c-0.1-0.5-0.4-0.8-0.6-1.1s-0.6-0.5-1.1-0.6c-0.4-0.1-0.9-0.2-1.4-0.2c-0.8,0-1.6,0.2-2.2,0.6s-1.2,1-1.5,1.7v10.6h-2.5v-14.8H234z
		"/>
	<path class="st6" d="M253.6,358.8c0-0.3,0-0.5,0.1-0.8c0.1-0.2,0.2-0.4,0.4-0.6s0.4-0.3,0.6-0.4s0.5-0.2,0.9-0.2s0.6,0,0.9,0.2
		c0.3,0.1,0.5,0.2,0.6,0.4c0.2,0.2,0.3,0.4,0.4,0.6c0.1,0.2,0.1,0.5,0.1,0.8c0,0.3,0,0.5-0.1,0.7c-0.1,0.2-0.2,0.4-0.4,0.6
		c-0.2,0.2-0.4,0.3-0.6,0.4c-0.3,0.1-0.5,0.1-0.9,0.1s-0.6,0-0.9-0.1s-0.5-0.2-0.6-0.4s-0.3-0.4-0.4-0.6
		C253.7,359.3,253.6,359,253.6,358.8z M253.6,370.8c0-0.3,0-0.5,0.1-0.8c0.1-0.2,0.2-0.4,0.4-0.6s0.4-0.3,0.6-0.4s0.5-0.2,0.9-0.2
		s0.6,0,0.9,0.2c0.3,0.1,0.5,0.2,0.6,0.4c0.2,0.2,0.3,0.4,0.4,0.6c0.1,0.2,0.1,0.5,0.1,0.8c0,0.3,0,0.5-0.1,0.7
		c-0.1,0.2-0.2,0.4-0.4,0.6c-0.2,0.2-0.4,0.3-0.6,0.4c-0.3,0.1-0.5,0.1-0.9,0.1s-0.6,0-0.9-0.1s-0.5-0.2-0.6-0.4s-0.3-0.4-0.4-0.6
		C253.7,371.3,253.6,371,253.6,370.8z"/>
	<path class="st1" d="M284.8,370.2c0.9,0,1.7-0.1,2.4-0.2s1.3-0.4,1.8-0.7s0.9-0.6,1.3-1c0.3-0.4,0.6-0.8,0.8-1.3
		c0.2-0.5,0.4-1,0.5-1.5c0.1-0.5,0.2-1.1,0.2-1.6c-0.2,0.3-0.5,0.5-0.8,0.8c-0.3,0.2-0.6,0.5-1,0.6s-0.8,0.3-1.2,0.4
		c-0.4,0.1-0.9,0.2-1.4,0.2c-1,0-1.8-0.2-2.5-0.6c-0.7-0.4-1.3-0.9-1.8-1.5s-0.8-1.3-1-2.1s-0.3-1.6-0.3-2.4c0-0.9,0.1-1.8,0.4-2.7
		s0.6-1.6,1.2-2.2c0.5-0.6,1.2-1.1,1.9-1.5c0.8-0.4,1.7-0.6,2.7-0.6c0.8,0,1.5,0.1,2.1,0.3s1.2,0.5,1.6,0.9c0.5,0.4,0.9,0.8,1.2,1.3
		c0.3,0.5,0.6,1.1,0.8,1.7c0.2,0.6,0.4,1.2,0.5,1.9c0.1,0.7,0.2,1.3,0.2,2v0.9c0,0.8,0,1.7-0.1,2.6s-0.2,1.7-0.5,2.6
		c-0.2,0.8-0.6,1.6-1,2.3s-1,1.4-1.7,1.9c-0.7,0.5-1.6,1-2.6,1.3c-1,0.3-2.2,0.5-3.6,0.5h-0.3v-2.3H284.8z M287.9,363.7
		c0.4,0,0.8-0.1,1.3-0.2c0.4-0.1,0.8-0.3,1.1-0.6s0.6-0.6,0.9-0.9c0.3-0.4,0.5-0.7,0.6-1.2v-0.8c0-0.9-0.1-1.7-0.3-2.4
		s-0.5-1.3-0.8-1.8c-0.4-0.5-0.8-0.8-1.2-1.1c-0.5-0.3-1-0.4-1.5-0.4c-0.6,0-1.1,0.1-1.6,0.4c-0.5,0.2-0.8,0.6-1.2,1
		s-0.6,0.9-0.7,1.5s-0.2,1.2-0.2,1.8c0,0.6,0.1,1.2,0.2,1.7c0.1,0.6,0.4,1.1,0.7,1.5c0.3,0.4,0.7,0.8,1.1,1.1
		S287.3,363.7,287.9,363.7z"/>
	<path class="st1" d="M311.4,364.8c0,1.3-0.1,2.4-0.4,3.4c-0.3,1-0.7,1.8-1.3,2.5s-1.2,1.2-2,1.5s-1.7,0.5-2.7,0.5
		c-1,0-1.9-0.2-2.7-0.5c-0.8-0.3-1.5-0.9-2-1.5c-0.6-0.7-1-1.5-1.3-2.5c-0.3-1-0.4-2.1-0.4-3.4v-4.7c0-1.3,0.1-2.4,0.4-3.4
		c0.3-1,0.7-1.8,1.3-2.5c0.6-0.7,1.2-1.2,2-1.5c0.8-0.4,1.7-0.5,2.7-0.5c1,0,1.9,0.2,2.7,0.5c0.8,0.4,1.5,0.9,2,1.5
		c0.6,0.7,1,1.5,1.3,2.5c0.3,1,0.4,2.1,0.4,3.4V364.8z M301.1,364.3l7.8-5.9c-0.1-1.3-0.5-2.3-1.2-3c-0.6-0.7-1.5-1-2.7-1
		c-1.3,0-2.3,0.4-2.9,1.3c-0.6,0.9-1,2.2-1,3.9V364.3z M308.9,360.8l-7.7,5.9c0.2,1.3,0.6,2.3,1.2,2.9c0.6,0.7,1.5,1,2.7,1
		c1.3,0,2.3-0.5,2.9-1.4c0.6-0.9,0.9-2.2,0.9-3.9V360.8z"/>
	<path class="st6" d="M322.1,371.8c0,0.4-0.1,0.9-0.2,1.3c-0.1,0.5-0.3,0.9-0.5,1.4s-0.5,0.9-0.7,1.3c-0.3,0.4-0.6,0.8-1,1.1
		l-1.6-0.9c0.4-0.6,0.7-1.3,0.9-2c0.2-0.7,0.3-1.5,0.3-2.2v-2.4h2.7V371.8z"/>
	<path class="st6" d="M116.1,409.4c0.6,0,1-0.2,1.4-0.5c0.4-0.3,0.7-0.7,0.9-1.1c0.2-0.5,0.4-1,0.5-1.5s0.1-1.1,0.1-1.7v-2.3
		c0-1.1,0.3-2,0.8-2.9c0.5-0.8,1.3-1.4,2.3-1.9c-1.1-0.4-1.8-1.1-2.3-1.9c-0.5-0.8-0.8-1.8-0.8-2.9v-2.3c0-0.6,0-1.1-0.1-1.7
		c-0.1-0.6-0.2-1.1-0.4-1.5c-0.2-0.5-0.5-0.8-0.9-1.1s-0.9-0.4-1.6-0.5l0.3-1.6c0.6,0,1.2,0.1,1.7,0.3c0.5,0.2,0.9,0.4,1.3,0.7
		s0.7,0.7,1,1.1c0.3,0.4,0.5,0.8,0.7,1.3c0.2,0.5,0.3,1,0.4,1.4s0.1,1,0.1,1.5v2.3c0,1.3,0.3,2.3,0.9,2.9s1.6,0.9,2.9,0.9v2
		c-1.3,0-2.2,0.3-2.9,0.9s-0.9,1.5-0.9,2.9v2.3c0,0.7-0.1,1.5-0.3,2.2c-0.2,0.7-0.5,1.4-0.9,2s-1,1.1-1.6,1.5
		c-0.6,0.4-1.4,0.6-2.3,0.6L116.1,409.4z"/>
	<path class="st6" d="M83.7,416.9h5.4v27h-5.4v-2.1h3v-22.9h-3V416.9z"/>
	<path class="st6" d="M105.5,439c0,0.4-0.1,0.9-0.2,1.3c-0.1,0.5-0.3,0.9-0.5,1.4s-0.5,0.9-0.7,1.3c-0.3,0.4-0.6,0.8-1,1.1l-1.6-0.9
		c0.4-0.6,0.7-1.3,0.9-2c0.2-0.7,0.3-1.5,0.3-2.2v-2.4h2.7V439z M102.3,426c0-0.3,0-0.5,0.1-0.8c0.1-0.2,0.2-0.4,0.4-0.6
		s0.4-0.3,0.6-0.4s0.5-0.2,0.9-0.2s0.6,0,0.9,0.2c0.3,0.1,0.5,0.2,0.6,0.4c0.2,0.2,0.3,0.4,0.4,0.6c0.1,0.2,0.1,0.5,0.1,0.8
		c0,0.3,0,0.5-0.1,0.7c-0.1,0.2-0.2,0.4-0.4,0.6c-0.2,0.2-0.4,0.3-0.6,0.4c-0.3,0.1-0.5,0.1-0.9,0.1s-0.6,0-0.9-0.1
		s-0.5-0.2-0.6-0.4s-0.3-0.4-0.4-0.6C102.3,426.5,102.3,426.2,102.3,426z"/>
</g>
<circle class="st7" cx="662.5" cy="431.5" r="10.5"/>
<circle class="st7" cx="1028.5" cy="93.5" r="10.5"/>
</svg>
